<?xml version="1.0" encoding="UTF-8"?>
<!DOCTYPE svg PUBLIC "-//W3C//DTD SVG 1.1//EN" "http://www.w3.org/Graphics/SVG/1.1/DTD/svg11.dtd">
<!-- Creator: CorelDRAW 2019 (64-Bit) -->
<svg xmlns="http://www.w3.org/2000/svg" xml:space="preserve" width="3.2999mm" height="407.811mm" version="1.1" style="shape-rendering:geometricPrecision; text-rendering:geometricPrecision; image-rendering:optimizeQuality; fill-rule:evenodd; clip-rule:evenodd"
viewBox="0 0 0.34 42.34"
 xmlns:xlink="http://www.w3.org/1999/xlink"
 xmlns:xodm="http://www.corel.com/coreldraw/odm/2003">
 <defs>
  <style type="text/css">
   <![CDATA[
    .fil0 {fill:#F7F6F1}
   ]]>
  </style>
 </defs>
 <g id="Слой_x0020_1">
  <metadata id="CorelCorpID_0Corel-Layer"/>
  <path class="fil0" d="M0 42.34l0.34 0c-0.04,-0.89 -0.06,-1.82 -0.13,-2.7 -0.03,-0.42 -0.12,-0.89 0,-1.29 0.19,-0.6 0.03,-0.68 -0.01,-1.24 -0.03,-0.43 0.05,-0.92 0.07,-1.36 0.02,-0.49 -0.03,-0.89 -0.03,-1.36 -0.01,-0.49 0.16,-0.84 0.07,-1.35 -0.17,-0.98 0,-1.78 -0.05,-2.71 -0.05,-0.78 -0.02,-0.61 -0.02,-1.3 0,-0.45 -0.04,-0.91 -0.07,-1.35 -0.03,-0.46 0,-0.91 -0.02,-1.36 -0.02,-0.47 0.15,-0.75 0.17,-1.24 0.02,-0.45 -0.03,-0.91 -0.04,-1.35 -0,-0.43 -0.03,-0.91 -0.08,-1.33 -0.05,-0.46 -0.16,-0.38 -0.16,-1.24 -0,-1.04 0.09,-0.79 0.11,-1.32 0.02,-0.44 0.11,-0.33 0.13,-1.28 0.01,-0.46 0.06,-0.92 0.03,-1.39 -0.03,-0.47 -0.21,-0.71 -0.17,-1.2 0.03,-0.46 0,-0.92 0.02,-1.4 0.02,-0.47 -0.06,-0.9 -0.03,-1.35 0.03,-0.44 0.09,-0.85 0.11,-1.3 0.06,-1.12 -0.13,-1.34 0.06,-2.7 0.07,-0.46 -0.09,-0.85 -0.08,-1.32 0.01,-0.49 0.06,-0.88 0.03,-1.39 -0.02,-0.42 -0.1,-0.91 -0.06,-1.33 0.05,-0.63 0.18,-0.61 -0.01,-1.26 -0.11,-0.38 -0.01,-0.87 0.02,-1.27 0.07,-0.88 0.09,-1.79 0.13,-2.67l-0.34 0 0 42.11 0 0 0 0.24z"/>
 </g>
</svg>
