<?xml version="1.0" encoding="UTF-8"?>
<!DOCTYPE svg PUBLIC "-//W3C//DTD SVG 1.1//EN" "http://www.w3.org/Graphics/SVG/1.1/DTD/svg11.dtd">
<!-- Creator: CorelDRAW 2019 (64-Bit) -->
<svg xmlns="http://www.w3.org/2000/svg" xml:space="preserve" width="93.4594mm" height="3.677mm" version="1.1" style="shape-rendering:geometricPrecision; text-rendering:geometricPrecision; image-rendering:optimizeQuality; fill-rule:evenodd; clip-rule:evenodd"
viewBox="0 0 239.2 9.41"
 xmlns:xlink="http://www.w3.org/1999/xlink"
 xmlns:xodm="http://www.corel.com/coreldraw/odm/2003">
 <defs>
  <style type="text/css">
   <![CDATA[
    .fil0 {fill:#F2DBB9}
   ]]>
  </style>
 </defs>
 <g id="Слой_x0020_1">
  <metadata id="CorelCorpID_0Corel-Layer"/>
  <path class="fil0" d="M-0 4.92l37.91 2.71 1.81 -4.51c8.12,-0.9 10.83,3.61 18.96,3.61l2.71 -2.71c20.76,7.22 18.96,5.42 42.42,4.51 10.83,0 0.9,-2.71 9.93,-2.71 3.61,0 7.22,0.9 10.83,0.9 9.03,0.9 2.71,-2.71 8.12,-1.81 5.42,0 5.42,0.9 11.73,0 13.54,-2.71 32.49,-1.81 46.94,-0.9 17.15,0 30.69,-1.81 46.03,-2.71l1.81 0 0 -1.31 -239.2 0 0 4.92z"/>
 </g>
</svg>
