<?xml version="1.0" encoding="UTF-8"?>
<!DOCTYPE svg PUBLIC "-//W3C//DTD SVG 1.1//EN" "http://www.w3.org/Graphics/SVG/1.1/DTD/svg11.dtd">
<!-- Creator: CorelDRAW 2019 (64-Bit) -->
<svg xmlns="http://www.w3.org/2000/svg" xml:space="preserve" width="168.051mm" height="197.669mm" version="1.1" style="shape-rendering:geometricPrecision; text-rendering:geometricPrecision; image-rendering:optimizeQuality; fill-rule:evenodd; clip-rule:evenodd"
viewBox="0 0 3400.09 3999.33"
 xmlns:xlink="http://www.w3.org/1999/xlink"
 xmlns:xodm="http://www.corel.com/coreldraw/odm/2003">
 <defs>
  <style type="text/css">
   <![CDATA[
    .fil0 {fill:black}
   ]]>
  </style>
 </defs>
 <g id="Слой_x0020_1">
  <metadata id="CorelCorpID_0Corel-Layer"/>
  <path class="fil0" d="M2419.23 3960.69c0,0 7.14,-28.54 42.82,0 -14.27,7.14 21.41,7.14 -21.41,7.14 -42.82,0 -7.14,0 -21.41,-7.14zm-157 0c21.41,-42.82 71.36,-14.27 85.64,0 -14.27,14.27 -64.23,14.27 -85.64,0zm-192.68 -21.41c21.41,0 28.55,0 49.95,7.14l42.82 14.27c-21.41,14.27 -71.36,14.27 -99.91,7.14 -7.14,-14.27 0,-14.27 7.14,-28.55zm856.37 7.14c7.14,-14.27 0,-14.27 21.41,-7.14 -7.14,7.14 7.14,7.14 -7.14,14.27 -21.41,0 -7.14,0 -14.27,-7.14zm-720.78 14.27c7.14,-28.54 7.14,-21.41 42.82,-21.41 -14.27,21.41 -21.41,35.68 -42.82,21.41zm642.27 -21.41c21.41,-14.27 14.27,-14.27 35.68,0 -7.14,7.14 7.14,7.14 -14.27,14.27 -14.27,0 -21.41,-14.27 -21.41,-14.27zm-256.91 -21.41c35.68,0 35.68,0 42.82,28.55l-14.27 14.27c-28.55,-7.14 -21.41,-21.41 -28.55,-42.82zm-549.5 -64.23l0 -28.54c21.41,-14.27 14.27,-7.14 42.82,0 -7.14,14.27 -21.41,21.41 -42.82,28.54zm35.68 -71.36c28.55,14.27 149.86,0 199.82,14.27 -21.41,14.27 -42.82,7.14 -85.64,14.27 -28.54,0 -42.82,7.14 -64.23,21.41l-21.41 -28.55c-28.55,0 -64.23,0 -92.77,-7.14 0,-21.41 -7.14,-35.68 57.09,-42.82 35.68,-7.14 64.23,0 85.64,14.27 -21.41,14.27 -7.14,7.14 -35.68,7.14 -7.14,0 -14.27,-7.14 -21.41,0 -21.41,0 -14.27,0 -21.41,7.14zm121.32 -3332.69c21.41,-21.41 221.23,-7.14 256.91,-7.14l64.23 0c21.41,7.14 7.14,0 14.27,14.27 -21.41,14.27 -206.96,7.14 -256.91,7.14 -14.27,0 -28.55,0 -42.82,0 -42.82,0 -21.41,-7.14 -35.68,-14.27zm485.27 14.27c-42.82,7.14 -85.64,0 -128.46,-7.14 0,-57.09 21.41,-28.55 71.36,-35.68 42.82,0 57.09,-14.27 57.09,42.82zm-28.55 -78.5c14.27,-14.27 42.82,-14.27 64.23,-21.41 35.68,-14.27 42.82,-7.14 71.36,7.14l-7.14 85.64c0,14.27 -64.23,28.55 -71.36,-21.41 28.54,-14.27 21.41,0 49.95,7.14 0,-92.77 -85.64,-7.14 -107.05,-57.09zm-14.27 21.41l-128.46 -21.41c7.14,-14.27 -7.14,-7.14 71.36,-21.41 49.96,-7.14 49.96,0 57.09,42.82zm64.23 -71.36c-14.27,-21.41 -14.27,-28.55 0,-49.96 42.82,21.41 0,42.82 0,49.96zm-385.36 -21.41c14.27,-21.41 21.41,-14.27 42.82,-7.14 -14.27,21.41 -28.55,14.27 -42.82,7.14zm292.59 -128.46c7.14,28.55 14.27,7.14 42.82,35.68 0,7.14 -7.14,-7.14 -7.14,14.27 35.68,0 0,-7.14 14.27,14.27 0,21.41 7.14,14.27 21.41,35.68 -28.55,35.68 -28.55,35.68 -78.5,21.41 14.27,-42.82 21.41,-14.27 42.82,-28.55 -7.14,-21.41 -7.14,-7.14 -21.41,-28.55 -28.54,0 -42.82,0 -57.09,-28.55l-7.14 7.14c-35.68,21.41 -71.36,7.14 -107.05,14.27 -35.68,7.14 -28.55,0 -14.27,14.27 28.55,7.14 42.82,0 71.36,0 14.27,0 78.5,-7.14 78.5,7.14 0,7.14 0,7.14 0,7.14 0,0 0,7.14 0,7.14l-14.27 28.55c-7.14,14.27 -14.27,21.41 -28.55,35.68 -21.41,-7.14 -35.68,-7.14 -42.82,-42.82 -35.68,14.27 -21.41,21.41 -57.09,21.41 0,-21.41 7.14,-28.55 7.14,-42.82l-14.27 0c-21.41,-21.41 -7.14,7.14 -7.14,-28.55 -28.55,14.27 -35.68,14.27 -71.36,14.27l-228.36 14.27c0,7.14 0,14.27 -7.14,21.41 -7.14,21.41 7.14,7.14 -14.27,14.27 -21.41,-7.14 -21.41,-7.14 -35.68,-14.27 0,-7.14 -7.14,-7.14 -14.27,-7.14 -21.41,-7.14 -64.23,0 -92.77,0 0,0 -14.27,0 -21.41,0 -21.41,0 -7.14,14.27 -35.68,14.27 -64.23,0 -21.41,0 -35.68,-14.27 21.41,-28.54 -21.41,7.14 14.27,-14.27l49.95 -21.41 -7.14 0 -42.82 7.14c-14.27,0 -35.68,0 -49.95,0l35.68 14.27c7.14,0 7.14,0 7.14,0 -35.68,21.41 -14.27,21.41 -57.09,21.41l0 0 -499.55 28.54 0 -78.5c0,0 -28.55,14.27 -14.27,-57.09 -42.82,0 7.14,7.14 -64.23,14.27 -78.5,7.14 -35.68,14.27 -157,14.27 -21.41,0 -14.27,7.14 -64.23,14.27 -42.82,7.14 -71.36,42.82 -135.59,42.82 -92.77,7.14 -64.23,57.09 -85.64,21.41 -7.14,-14.27 7.14,0 0,-21.41 0,0 0,-7.14 0,-7.14l-7.14 0c-14.27,21.41 -21.41,21.41 -42.82,7.14l-14.27 -7.14c0,0 0,-7.14 0,-7.14l0 14.27c0,0 0,7.14 -7.14,7.14 0,0 0,7.14 0,7.14 -21.41,0 -28.55,0 -49.95,-7.14 35.68,21.41 28.55,-7.14 28.55,35.68 -21.41,14.27 -149.86,21.41 -185.55,21.41 -99.91,7.14 -149.87,21.41 -164.14,-14.27 -14.27,21.41 0,21.41 -71.36,21.41 -7.14,-21.41 -7.14,-14.27 -28.55,-21.41 0,0 -7.14,-7.14 -7.14,-7.14 0,0 0,0 -7.14,0 0,0 0,0 -7.14,0 -21.41,-7.14 -42.82,-7.14 -71.36,-7.14 14.27,0 35.68,0 42.82,0 14.27,0 -7.14,-7.14 21.41,7.14 14.27,7.14 14.27,7.14 21.41,14.27 -42.82,35.68 -92.77,0 -99.91,0 -64.23,0 -57.09,35.68 -78.5,0 -7.14,28.54 0,0 -14.27,14.27l-64.23 0 0 3396.92c71.36,-14.27 71.36,28.54 157,14.27l28.55 -14.27c35.68,-21.41 35.68,0 49.95,7.14 42.82,14.27 49.96,-14.27 114.18,-14.27l128.45 0c49.96,7.14 -7.14,0 35.68,14.27 21.41,-21.41 28.55,-14.27 92.77,-14.27 42.82,0 178.41,-7.14 214.09,0 57.09,21.41 -14.27,0 78.5,0 0,0 0,0 0,7.14 7.14,14.27 21.41,28.54 42.82,21.41 42.82,-7.14 -7.14,0 28.55,-14.27 14.27,-7.14 0,-7.14 28.55,0l-21.41 14.27c0,0 0,0 -7.14,7.14 0,0 0,0 0,0 49.95,0 107.05,7.14 157,7.14 57.09,0 92.77,-35.68 121.32,0 35.68,7.14 64.23,14.27 85.64,-7.14 -28.55,-57.09 -64.23,0 -85.64,-35.68 21.41,-7.14 64.23,-7.14 85.64,-7.14 42.82,7.14 21.41,21.41 42.82,49.96l42.82 -7.14c-14.27,-42.82 -21.41,-42.82 42.82,-35.68 57.09,0 221.23,28.55 271.18,21.41 49.95,-14.27 7.14,-28.55 85.64,-21.41l14.27 42.82c7.14,-14.27 7.14,-35.68 14.27,-42.82 78.5,-7.14 164.14,21.41 171.27,114.18 0,0 -78.5,-42.82 -114.18,-28.54 -21.41,14.27 0,0 -14.27,7.14 -14.27,14.27 -7.14,7.14 -21.41,7.14l-14.27 0c0,0 0,0 0,0 -35.68,14.27 -7.14,28.55 -64.23,21.41 0,0 -7.14,-7.14 -14.27,0 -35.68,0 -14.27,14.27 -42.82,-7.14 -21.41,-21.41 -35.68,-21.41 -64.23,-14.27 14.27,28.55 7.14,7.14 28.55,21.41l21.41 21.41c35.68,0 164.14,0 185.55,7.14 35.68,14.27 7.14,35.68 35.68,57.09 14.27,7.14 64.23,7.14 92.77,14.27 -7.14,7.14 0,14.27 -49.95,21.41l-185.55 0c-14.27,7.14 -7.14,0 -14.27,7.14 121.32,0 242.64,0 363.96,7.14 42.82,7.14 49.96,0 85.64,-7.14 35.68,0 57.09,0 92.77,0 28.55,0 57.09,-14.27 78.5,-14.27 42.82,-7.14 49.96,14.27 71.36,14.27 35.68,7.14 128.46,0 178.41,0 121.32,0 14.27,-35.68 157,-14.27 28.55,7.14 49.96,7.14 85.64,7.14l78.5 0c49.95,0 14.27,14.27 71.36,-7.14 49.95,-21.41 35.68,14.27 71.36,0 21.41,-35.68 -7.14,-7.14 14.27,-71.36 21.41,-64.23 0,-21.41 49.96,-57.09 -7.14,-21.41 -14.27,-14.27 -14.27,-35.68 0,-35.68 0,-7.14 21.41,-35.68 0,0 0,-7.14 0,-7.14 0,0 0,0 7.14,0l0 -28.55c14.27,-21.41 7.14,14.27 28.55,-28.54l107.05 0 28.55 -456.73c0,0 -14.27,7.14 -21.41,-14.27l28.55 -14.27 28.55 -677.96c7.14,-28.55 0,-57.09 0,-92.77 0,-135.59 -14.27,-256.91 -14.27,-385.37 7.14,-49.95 0,-206.95 7.14,-242.64 14.27,-49.96 7.14,-64.23 7.14,-135.59 7.14,-128.46 -14.27,-264.05 -14.27,-392.5l7.14 -299.73c7.14,-57.09 14.27,7.14 7.14,-85.64l-35.68 -770.73c-7.14,-7.14 0,0 -14.27,-7.14 -7.14,-7.14 -7.14,-7.14 -21.41,-7.14 -14.27,-7.14 -28.55,-7.14 -42.82,-7.14 -14.27,0 -35.68,0 -49.95,-7.14 -28.55,-7.14 0,0 -28.55,-14.27 -42.82,7.14 -7.14,14.27 -78.5,21.41 -7.14,-28.55 7.14,21.41 0,-14.27l-7.14 -21.41c-35.68,14.27 -14.27,21.41 -49.95,35.68 -21.41,-7.14 0,0 -14.27,-14.27 -7.14,0 0,0 -14.27,-14.27 -21.41,14.27 -14.27,21.41 -42.82,35.68 -28.55,14.27 -128.46,21.41 -157,14.27 -35.68,0 -42.82,-7.14 -57.09,-28.55 -35.68,28.55 0,14.27 -35.68,14.27 -28.55,0 0,0 -35.68,14.27 -35.68,-7.14 -14.27,-7.14 -28.55,-14.27 -21.41,0 0,0 -14.27,7.14l-21.41 14.27 7.14 -57.09c-49.95,0 -42.82,7.14 -71.36,14.27 -35.68,14.27 -499.55,0 -592.32,7.14l-85.64 14.27c0,0 0,0 0,0 42.82,28.55 7.14,14.27 92.77,14.27 42.82,7.14 78.5,14.27 121.32,14.27 42.82,-7.14 64.23,-21.41 99.91,-14.27 35.68,7.14 178.41,14.27 214.09,7.14 28.55,-14.27 71.36,-14.27 107.05,-14.27 21.41,0 78.5,14.27 99.91,21.41l85.64 35.68c-57.09,28.54 -64.23,-7.14 -114.18,-7.14zm-1884.01 92.77c-21.41,0 -28.55,7.14 -49.95,-7.14 7.14,-7.14 14.27,-14.27 28.54,-7.14 28.55,0 14.27,7.14 21.41,14.27zm35.68 -35.68c-42.82,14.27 -28.55,0 -64.23,0 -42.82,0 -7.14,14.27 -57.09,14.27 -85.64,7.14 -121.32,35.68 -178.41,28.55 -92.77,-14.27 -7.14,0 -85.64,0l14.27 14.27c-71.36,0 -14.27,7.14 -78.5,-7.14 -28.55,-7.14 -85.64,0 -121.32,7.14l28.55 7.14c-42.82,-7.14 -71.36,-14.27 -114.18,-7.14 -42.82,7.14 -7.14,14.27 -49.95,7.14 -28.55,0 -28.55,0 -57.09,0l0 14.27c35.68,0 57.09,-7.14 64.23,28.55 14.27,-14.27 7.14,14.27 14.27,-14.27 21.41,35.68 14.27,0 78.5,0 7.14,0 57.09,35.68 99.91,0 -7.14,-7.14 -7.14,-7.14 -21.41,-14.27 -28.54,-14.27 -7.14,-7.14 -21.41,-7.14 -7.14,0 -28.55,0 -42.82,0 28.55,0 49.95,0 71.36,7.14 7.14,0 7.14,0 7.14,0 7.14,0 7.14,0 7.14,0 0,0 7.14,7.14 7.14,7.14 21.41,7.14 21.41,0 28.55,21.41 71.36,0 57.09,0 71.36,-21.41 14.27,35.68 64.23,21.41 164.14,14.27 35.68,0 164.14,-7.14 185.55,-21.41 0,-42.82 7.14,-14.27 -28.55,-35.68 21.41,7.14 28.55,7.14 49.95,7.14 0,0 0,-7.14 0,-7.14 7.14,0 7.14,-7.14 7.14,-7.14l0 -14.27c0,0 0,7.14 0,7.14l14.27 7.14c7.14,-7.14 14.27,-7.14 21.41,-14.27l21.41 7.14 7.14 0c0,0 0,7.14 0,7.14 7.14,21.41 -7.14,7.14 0,21.41 21.41,35.68 -7.14,-14.27 85.64,-21.41 64.23,0 92.77,-35.68 135.59,-42.82 49.96,-7.14 42.82,-14.27 64.23,-14.27 121.32,0 78.5,-7.14 157,-14.27 71.36,-7.14 21.41,-14.27 64.23,-14.27 -14.27,71.36 14.27,57.09 14.27,57.09l0 -71.36c-64.23,0 -164.14,-14.27 -228.37,-7.14 -42.82,0 -64.23,21.41 -92.77,14.27 -28.55,-14.27 -64.23,-28.54 -99.91,-7.14 7.14,21.41 7.14,21.41 28.55,21.41 7.14,7.14 21.41,0 28.55,7.14l21.41 7.14 -71.36 28.55c-57.09,-35.68 -28.55,-14.27 -49.95,-71.36l-42.82 7.14 7.14 42.82c-28.55,21.41 -28.55,14.27 -64.23,21.41zm-763.59 64.23c28.55,0 28.55,0 57.09,0 42.82,7.14 7.14,0 49.95,-7.14 42.82,-7.14 71.36,0 114.18,7.14l-28.55 -7.14c35.68,-7.14 92.77,-14.27 121.32,-7.14 64.23,14.27 7.14,7.14 78.5,7.14l-14.27 -14.27c78.5,0 -7.14,-14.27 85.64,0 57.09,7.14 92.77,-21.41 178.41,-28.55 49.95,0 14.27,-14.27 57.09,-14.27 35.68,0 21.41,14.27 64.23,0 -28.55,-14.27 -92.77,-7.14 -128.46,-14.27 7.14,-21.41 78.5,7.14 114.18,-14.27 -35.68,-14.27 -157,-14.27 -199.82,-14.27 -92.77,0 -35.68,14.27 -78.5,28.55 -57.09,14.27 -42.82,-35.68 -57.09,-49.96 -7.14,21.41 -7.14,21.41 -7.14,49.96l-107.05 -14.27c0,0 0,7.14 -14.27,-7.14 -35.68,-21.41 7.14,-7.14 -35.68,-14.27 -7.14,7.14 -14.27,14.27 -28.55,14.27 -49.95,7.14 -78.5,14.27 -114.18,-14.27l78.5 -7.14c0,-7.14 0,-14.27 -42.82,-14.27l-142.73 0 0 135.59zm1941.1 -49.96l-49.95 21.41c-35.68,21.41 7.14,-14.27 -14.27,14.27 14.27,14.27 -28.55,14.27 35.68,14.27 28.54,0 14.27,-14.27 35.68,-14.27 7.14,0 21.41,0 21.41,0 28.55,0 71.36,-7.14 92.77,0 7.14,0 14.27,0 14.27,7.14 14.27,-21.41 -7.14,-7.14 14.27,-14.27 7.14,-7.14 21.41,0 28.54,0l-7.14 28.55c21.41,-7.14 7.14,7.14 14.27,-14.27 7.14,-7.14 7.14,-14.27 7.14,-21.41l228.36 -14.27c35.68,0 42.82,0 71.36,-14.27 0,35.68 -14.27,7.14 7.14,28.55l0 -21.41c-14.27,-14.27 -21.41,-7.14 14.27,-14.27 35.68,-7.14 71.36,7.14 107.05,-14.27l7.14 -7.14c14.27,28.55 28.55,28.55 57.09,28.55l35.68 0c-14.27,-21.41 21.41,-14.27 -14.27,-14.27 0,-21.41 7.14,-7.14 7.14,-14.27 -28.55,-28.54 -35.68,-7.14 -42.82,-35.68l-7.14 7.14c-7.14,7.14 -21.41,14.27 -49.96,14.27 -57.09,-14.27 35.68,-21.41 -49.95,-28.55 -42.82,-7.14 -121.32,0 -164.14,0 -92.77,7.14 -78.5,35.68 -128.45,14.27 -35.68,-14.27 -107.05,-21.41 -135.59,0 28.55,49.95 64.23,7.14 114.18,28.54 -14.27,14.27 -7.14,7.14 -49.95,14.27 -14.27,7.14 -78.5,49.95 -114.18,-35.68 -7.14,-7.14 0,-7.14 -7.14,-14.27l-57.09 7.14c7.14,14.27 7.14,21.41 7.14,42.82l-28.55 21.41zm-1719.87 -149.86l7.14 35.68 -42.82 0c7.14,-21.41 -7.14,-7.14 14.27,-21.41 7.14,-14.27 7.14,-14.27 21.41,-14.27zm-221.23 -78.5l0 128.46c71.36,0 85.64,7.14 142.73,-28.55l21.41 28.55c28.54,0 64.23,0 85.64,7.14 0,42.82 -7.14,28.55 -28.55,42.82 14.27,0 21.41,-7.14 28.55,-14.27 42.82,7.14 0,-7.14 35.68,14.27 14.27,14.27 14.27,7.14 14.27,7.14 -14.27,-35.68 -49.95,-21.41 -57.09,-107.05 14.27,0 71.36,42.82 107.05,28.55l7.14 -7.14c0,0 7.14,0 7.14,0 35.68,-28.55 7.14,7.14 57.09,-28.55 35.68,-14.27 21.41,-7.14 42.82,0 35.68,7.14 7.14,0 42.82,-7.14 21.41,21.41 35.68,35.68 71.36,21.41 -14.27,-35.68 7.14,0 -21.41,-21.41l-21.41 -21.41c-42.82,7.14 -121.32,7.14 -164.14,0 -42.82,-7.14 -21.41,-14.27 -35.68,-42.82 -14.27,-28.55 -28.55,-21.41 -64.23,-21.41 -42.82,-7.14 -21.41,-14.27 -57.09,7.14 -35.68,14.27 -28.55,7.14 -71.36,0l-142.73 14.27zm1327.37 221.23l0 78.5 499.55 -28.54 -57.09 -7.14c7.14,-14.27 28.55,-14.27 49.95,-7.14 14.27,7.14 14.27,-14.27 7.14,14.27 42.82,0 21.41,0 57.09,-21.41 0,0 0,0 -7.14,0l-35.68 -14.27c14.27,0 35.68,0 49.95,0l42.82 -7.14 -235.5 -7.14c14.27,-21.41 21.41,-14.27 71.36,-7.14 28.55,0 57.09,-7.14 85.64,-7.14 -42.82,-21.41 -271.18,-14.27 -342.55,-14.27 -14.27,7.14 -7.14,14.27 -21.41,28.55 -14.27,7.14 -64.23,14.27 -78.5,-7.14 -14.27,-35.68 14.27,-21.41 -14.27,-42.82 -7.14,14.27 -7.14,35.68 -14.27,49.95l-57.09 0zm149.86 3603.87c-21.41,-42.82 -35.68,-35.68 -85.64,-35.68 -49.95,-7.14 -64.23,-14.27 -121.32,-7.14 -28.55,14.27 -121.32,-14.27 -171.27,-14.27 -28.55,7.14 -42.82,21.41 -92.77,21.41 -42.82,-7.14 -49.96,-28.54 -92.77,-21.41 -28.55,14.27 14.27,14.27 -28.55,7.14 -28.54,0 0,-14.27 -35.68,0 -107.05,57.09 -28.54,0 -107.05,21.41 -35.68,7.14 -14.27,7.14 -35.68,-7.14 -21.41,-14.27 -57.09,-28.54 -85.64,-7.14 14.27,35.68 7.14,7.14 35.68,14.27 21.41,14.27 0,7.14 21.41,28.54 64.23,0 121.32,-7.14 192.68,0 135.59,7.14 35.68,-14.27 199.82,-14.27 49.96,0 378.23,7.14 406.78,14.27zm-706.5 -3746.6l21.41 28.55c49.95,0 71.36,0 114.18,7.14 57.09,7.14 64.23,-14.27 107.05,-7.14 28.55,7.14 85.64,14.27 114.18,14.27 35.68,0 57.09,-28.54 114.18,-21.41 28.55,7.14 28.55,14.27 49.96,21.41 35.68,7.14 28.54,-7.14 49.95,-7.14 42.82,-14.27 0,14.27 42.82,-7.14 14.27,0 28.55,-14.27 42.82,-21.41 57.09,-7.14 14.27,7.14 57.09,7.14 21.41,0 21.41,-14.27 42.82,-7.14 21.41,7.14 57.09,42.82 99.91,14.27l-28.55 -14.27c-49.95,-14.27 14.27,-21.41 -49.95,-21.41l-228.37 0c-49.95,0 -28.54,14.27 -99.91,14.27 -149.87,-7.14 -292.59,-7.14 -449.59,0zm-770.73 3710.92l371.09 7.14c-49.95,-57.09 -57.09,-28.55 -171.27,-42.82 -42.82,-7.14 -64.23,0 -99.91,7.14 -49.96,7.14 -57.09,-7.14 -99.91,-7.14l0 35.68zm413.91 7.14c92.77,0 71.36,-7.14 149.87,21.41 28.54,-14.27 21.41,-7.14 28.54,-35.68 -57.09,-7.14 -142.73,-28.54 -178.41,14.27zm1241.73 -3696.65c21.41,7.14 64.23,7.14 85.64,7.14 21.41,0 49.95,7.14 71.36,0 28.55,-14.27 0,0 14.27,-21.41 -71.36,7.14 -85.64,7.14 -135.59,-21.41 -21.41,14.27 -28.55,14.27 -35.68,35.68zm-7.14 3710.92c-42.82,-7.14 -85.64,-14.27 -121.32,-7.14 -7.14,7.14 -7.14,14.27 -14.27,21.41 28.54,0 42.82,-7.14 71.36,0 28.54,7.14 14.27,14.27 49.95,21.41 7.14,-7.14 14.27,-14.27 14.27,-35.68zm-1049.05 -3725.19c35.68,7.14 92.77,21.41 121.32,0 -21.41,-21.41 -21.41,-7.14 -49.96,-14.27 -21.41,-7.14 -28.54,-14.27 -49.95,-21.41 -14.27,7.14 -14.27,14.27 -21.41,35.68zm378.23 3768.01c35.68,14.27 71.36,14.27 99.91,0 -21.41,-14.27 -78.5,-7.14 -99.91,0zm1134.68 -3568.19l7.14 -28.55c-7.14,0 -21.41,-7.14 -28.54,0 -21.41,7.14 0,-7.14 -14.27,14.27 14.27,7.14 14.27,7.14 35.68,14.27zm-285.46 -14.27l0 0c7.14,-28.55 7.14,-7.14 -7.14,-14.27 -21.41,-7.14 -42.82,-7.14 -49.95,7.14l57.09 7.14zm-1741.28 3553.92c0,0 0,21.41 35.68,0 0,-7.14 14.27,-14.27 -14.27,-14.27 -7.14,0 -14.27,7.14 -21.41,14.27zm2276.51 -3546.78c-21.41,-7.14 -28.55,-14.27 -42.82,7.14 14.27,7.14 28.55,14.27 42.82,-7.14z"/>
 </g>
</svg>
