<?xml version="1.0" encoding="UTF-8"?>
<!DOCTYPE svg PUBLIC "-//W3C//DTD SVG 1.1//EN" "http://www.w3.org/Graphics/SVG/1.1/DTD/svg11.dtd">
<!-- Creator: CorelDRAW 2019 (64-Bit) -->
<svg xmlns="http://www.w3.org/2000/svg" xml:space="preserve" width="85.3153mm" height="20.8mm" version="1.1" style="shape-rendering:geometricPrecision; text-rendering:geometricPrecision; image-rendering:optimizeQuality; fill-rule:evenodd; clip-rule:evenodd"
viewBox="0 0 3081.89 751.37"
 xmlns:xlink="http://www.w3.org/1999/xlink"
 xmlns:xodm="http://www.corel.com/coreldraw/odm/2003">
 <defs>
  <style type="text/css">
   <![CDATA[
    .fil0 {fill:#86B067}
   ]]>
  </style>
 </defs>
 <g id="Слой_x0020_1">
  <metadata id="CorelCorpID_0Corel-Layer"/>
  <path class="fil0" d="M305.64 751.37l114.62 0c50.94,-50.94 165.55,12.74 382.05,-38.2 89.15,-25.47 101.88,25.47 191.02,12.74 50.94,0 38.2,-12.74 76.41,-12.74 38.2,0 -12.74,12.74 38.2,0 0,0 38.2,-12.73 38.2,-12.73 76.41,76.41 63.67,12.73 216.5,25.47 140.09,25.47 432.99,12.73 573.08,0 140.09,-12.74 216.5,-50.94 394.79,-38.21 76.41,12.74 38.2,25.47 114.61,38.21 89.15,12.73 63.67,-12.74 114.62,-12.74l101.88 0c0,0 0,0 0,0l25.47 12.74c50.94,25.47 152.82,0 203.76,-12.74 114.62,-12.73 152.82,-12.73 191.03,-101.88 -12.74,-38.21 12.73,0 -12.74,-12.74 -50.94,-50.94 0,0 -25.47,-50.94 -12.73,-50.94 -38.2,-25.47 -25.47,-140.09 0,-89.15 0,-63.67 0,-140.09 0,-63.67 -25.47,-76.41 -89.15,-76.41 12.74,-50.94 25.47,-50.94 -25.47,-89.15 -25.47,-25.47 -63.67,-38.2 -114.62,-50.94 -76.41,-12.73 -445.73,12.74 -649.49,-12.73 -38.2,0 -292.91,-25.47 -305.64,-38.21l-483.93 0 -63.67 12.74c-254.7,12.73 -496.67,76.41 -776.84,12.73 -76.41,-12.73 -229.23,-12.73 -280.17,-25.47l-140.09 0c-25.47,114.62 12.73,89.15 12.73,178.29 -12.73,63.67 -12.73,25.47 -25.47,76.41 0,38.2 25.47,89.15 12.73,191.02l-25.47 76.41c-50.94,89.15 0,50.94 -25.47,76.41 -12.73,12.74 -12.73,12.74 -12.73,12.74l-25.47 12.73 12.73 0c25.47,63.67 38.21,89.15 114.62,101.88 38.21,0 63.67,0 89.15,0l89.15 25.47z"/>
 </g>
</svg>
