<?xml version="1.0" encoding="UTF-8"?>
<!DOCTYPE svg PUBLIC "-//W3C//DTD SVG 1.1//EN" "http://www.w3.org/Graphics/SVG/1.1/DTD/svg11.dtd">
<!-- Creator: CorelDRAW 2019 (64-Bit) -->
<svg xmlns="http://www.w3.org/2000/svg" xml:space="preserve" width="152.536mm" height="41.6434mm" version="1.1" style="shape-rendering:geometricPrecision; text-rendering:geometricPrecision; image-rendering:optimizeQuality; fill-rule:evenodd; clip-rule:evenodd"
viewBox="0 0 15731.01 4294.66"
 xmlns:xlink="http://www.w3.org/1999/xlink"
 xmlns:xodm="http://www.corel.com/coreldraw/odm/2003">
 <defs>
  <style type="text/css">
   <![CDATA[
    .fil0 {fill:#86B067}
    .fil2 {fill:#EAA93A}
    .fil1 {fill:#86B067;fill-rule:nonzero}
   ]]>
  </style>
 </defs>
 <g id="Слой_x0020_1">
  <metadata id="CorelCorpID_0Corel-Layer"/>
  <g id="_1939994093184">
   <path class="fil0" d="M12760.29 3162.23c2.61,-10.24 5.27,-20.46 7.97,-30.66 24.32,-91.79 49.9,-183.27 76.14,-274.53 24.2,-111.59 48.9,-223.07 74.09,-334.44l0.34 -1.3c27.81,-94.13 81.81,-191.27 192.26,-191.27 25.59,0 52.67,5.78 69.34,26.9 15.68,19.85 19.48,47.38 19.48,71.94 0,15.02 -1.47,30.49 -3.14,45.4 -1.04,9.36 -2.88,21.47 -2.88,30.82 0,24.67 -9.21,62.37 -14.52,86.64 -12.78,58.41 -27.39,116.66 -42.14,174.61 -9.61,48.99 -19.27,97.94 -29.01,146.9 34.82,-37.21 81.61,-95.78 93.03,-110.12 73.14,-91.81 148.8,-190.82 227.46,-277.76 42.88,-47.39 143.94,-157.22 213.86,-157.22 29.95,0 57.64,24.08 77.1,44.52 27.79,29.18 49.82,64.97 49.82,106.47l0 1.06 -0.11 1.06c-3.56,34.39 -11.26,70.91 -18.13,104.81 -13.04,64.38 -27.57,128.58 -42.46,192.56 -7.97,34.24 -16.01,68.47 -24.03,102.69 35.37,-44.12 70.79,-88.21 106.19,-132.29 75.8,-94.4 153.64,-188.61 235.54,-277.82 31.01,-33.77 131.9,-147.06 181.66,-147.06 29.07,0 55.63,8.71 77.14,28.5 23.83,21.93 31.73,52.93 31.73,84.37 0,31.48 -13.73,69.38 -25.64,98.15 -19.43,46.91 -56.39,132.24 -62.77,182.24 -4.86,38.04 -8.58,76.33 -11.95,114.53 -3.34,37.93 -5.93,76.42 -5.93,114.51 0,28.55 2.25,59.01 10.21,86.54 7.64,26.41 29.32,50.61 49.21,68.68 21.67,19.69 50.88,50.05 50.88,81.45 0,39.42 -24.52,83.44 -45.47,115.56 -24.43,37.47 -62.37,83.57 -111.53,83.57 -51.77,0 -100.99,-12.12 -144.61,-40.43 -42,-27.27 -72.85,-64.46 -93.16,-110.93 -9.17,-22.92 -14.68,-47.07 -17.4,-71.57 -3.1,-27.99 -4.15,-56.36 -4.15,-84.5 0,-28.62 0.99,-57.39 2.02,-86 0.22,-5.89 0.44,-11.81 0.66,-17.73 -58.37,67.18 -116.83,134.46 -175.73,202.22 -60.04,62.79 -187.45,190.89 -281.65,190.89 -44.47,0 -78.84,-19.81 -100.29,-58.83 -13.37,-24.3 -20.62,-50.36 -20.62,-78.13l0 -2.44 87.11 -362.61 0.44 -1.19c5.68,-15.15 10.24,-34.82 14.2,-53.12 -27.65,38.62 -54.99,77.49 -82.31,116.34 -74.11,105.4 -153.46,213.57 -240.3,308.89 -54.9,60.26 -159.31,167.18 -247.89,167.18 -42.56,0 -77.76,-16.86 -99.17,-54.56 -14.4,-25.34 -22.74,-52.59 -26.06,-80.96 -5.1,5.52 -10.08,10.6 -14.62,15.15 -37.03,37.03 -84.46,70.23 -138.93,70.23 -83.23,0 -165.4,-56.23 -226.04,-108.27 -67.42,-57.87 -128.25,-124.25 -174.58,-200.23 -53.16,59.37 -109.44,116.86 -169.48,169.04 -51.78,45.02 -141.6,117.38 -214.1,117.38 -32.39,0 -58.33,-14.27 -74.9,-42.19 -14.72,-24.79 -21.94,-51.89 -21.94,-80.72 0,-98.79 19.84,-206.84 40.57,-303.18 22.92,-106.56 49.84,-213.87 84.87,-317.16 21.99,-64.84 46.89,-129.64 77.25,-191.05 16.06,-32.47 52.97,-108.13 94.76,-113.68 39.13,-3.73 80.8,12.51 114.82,30.35 37.21,19.51 72.28,50.52 68.09,96.76 -2.51,22.46 -9.66,48.43 -15.34,70.33 -11.32,43.76 -23.85,87.33 -36.52,130.72 -22.07,75.58 -45.2,150.85 -69.25,225.82 42.16,-52.64 85.15,-104.6 129.07,-155.78 71.82,-83.69 148.41,-168.84 230.53,-242.59 43.62,-39.19 129.94,-113.59 192.27,-113.59 31.76,0 65.79,8.75 77.58,41.77 10.69,29.92 11.24,77.63 11.24,109.22 0,63.65 -19.87,121.12 -72.78,159.15l-0.96 0.65c-36.35,23.13 -72.84,46.15 -109.71,68.45 -29.74,17.98 -56.79,40.58 -81.31,65.11 -14.04,14.14 -27.82,28.77 -41.62,43.24 17.53,55.57 52.96,100.9 97.62,138.3 49.7,33.76 99.41,67.51 149.04,101.36 29.41,17.38 58.92,34.61 88.51,51.7 9.52,5.5 20.96,12.59 30.97,21.18zm-7710.1 -306.95c35.01,-23.38 74.48,-41.24 114,-55.34 18.13,-59.46 38.02,-119.03 61.83,-176.4 26.92,-64.9 56.64,-129.7 91.36,-190.82 18.08,-31.83 60.72,-107.11 102.21,-112.63 38.78,-3.7 78.87,12.17 112.2,30.56 36.89,20.35 68.82,51.65 62.63,97.06l-0.15 1.12 -0.28 1.1c-3.75,15 -10.7,32.23 -16.06,46.78 -12.57,34.17 -25.67,68.17 -38.88,102.1 -14.78,37.93 -29.95,76.11 -44.04,114.47 53.02,-9.1 106.21,-17.2 159.55,-24.09 45.5,-5.87 92.81,-11.08 139,-12.04 26.73,-82.1 58,-162.83 94.67,-240.99 17.78,-37.89 46.47,-66.49 82.58,-87.32 29.78,-17.19 65.58,-32.86 100.56,-32.86 24.36,0 51.08,5.58 64.73,27.93 11.65,19.08 14.06,45.03 14.06,66.91l0 56.77 -0.66 2.54c-29.21,112.81 -57.94,225.74 -86.21,338.79 -14.54,58.19 -41.5,158.06 -41.5,217.62 0,38.56 9.78,75.88 25.32,110.99 9.2,20.78 29.35,65.65 24.48,89.36 -5.61,34.32 -53.31,77.32 -77.85,98.93 -34.04,29.98 -81.51,64.31 -128.95,64.31 -45.86,0 -79.83,-27.81 -104.36,-64.28 -26.87,-39.92 -43.48,-84.24 -50.44,-131.87 -2.2,-15.05 -2.22,-31.91 -2.22,-47.11 0,-53.52 7.29,-109.08 16.74,-162.25 -29.15,-5.19 -58.71,-7.65 -88.36,-7.65 -45.43,0 -98.06,9.4 -142.64,17.71 -34.39,6.41 -68.98,14.08 -103.33,21.34 -11.05,45.43 -17.01,98.03 -22.37,143.32 -3.87,32.72 -9.13,65.32 -15.26,97.69 -9.52,50.18 -44.07,85.56 -87.22,110.31 -38.43,22.04 -80.13,34.84 -124.58,34.84 -32.66,0 -57.1,-16.51 -71.6,-45.51 -12.47,-24.93 -19.22,-51.53 -19.22,-79.42l0 -1.06 0.11 -1.06c3.7,-35.83 8.53,-71.66 15.3,-107.05 6.27,-32.78 13.67,-65.52 21.43,-98.06 -25.3,-2.52 -50.34,-9.23 -71.66,-23.22 -17.55,-11.52 -29.05,-26.88 -35.37,-44.78 -28.2,47.48 -59.74,92.33 -91.39,133.4 -92.13,119.54 -233.84,268.77 -397.41,268.77 -33.14,0 -67.26,-10.75 -97.42,-23.76 -25.7,-11.09 -50.63,-23.86 -74.5,-38.42 -14.44,55.71 -26.26,112.75 -37.5,168.94 -11.45,57.25 -24.13,117.84 -30.83,175.82 -5.78,50.04 -9.92,100.52 -13.97,150.72 -3.96,48.95 -7.89,98.1 -13.08,146.93 -3.31,31.17 -13.67,61.94 -38.28,82.76 -28.55,24.16 -82,26.94 -117.62,26.94 -49.86,0 -93.62,-17.35 -116.92,-63.95 -17.18,-36.32 -20.03,-87.54 -20.03,-127.15 0,-41.98 13.5,-101.28 22.04,-142.56 19.37,-93.53 41.94,-186.82 64.8,-279.55l73.12 -296.68c-56.97,41.11 -133.2,77.78 -184.8,101.72 -128.52,59.63 -286.37,118.25 -429.86,118.25 -79.13,0 -134.28,-51.27 -172.27,-116.56 -31.54,-54.23 -50.22,-112.45 -54.15,-174.25 -35.2,51.97 -80.34,96.98 -129.86,135.96 -111.64,87.9 -239.63,146.83 -383.79,146.83 -131.39,0 -266.87,-25.18 -373.52,-106.52 -49.49,-37.75 -110.4,-95.35 -110.4,-162.8 0,-46.83 8.85,-95.04 37.08,-133.54 26.42,-36.02 63.37,-53.54 107.89,-53.54 55.78,0 113.65,52.06 150.14,89.44 57.44,58.86 137.03,77.02 216.89,77.02 66.87,0 123.63,-26.49 172.68,-70.88 47.92,-43.37 77.45,-95.82 77.45,-161.2 0,-36.03 -6.04,-79.72 -34.98,-104.74 -21.78,-18.83 -55.09,-23.06 -82.77,-23.06 -22.63,0 -59.63,8.86 -81.98,13.59 -16.9,3.57 -39.15,8.48 -56.41,8.48 -82.96,0 -104.87,-72.26 -104.87,-142.97 0,-30.79 18.89,-60.39 37.82,-83.33 23.81,-28.86 53.62,-49.5 89.35,-58.81 57.4,-16.75 114.32,-38.95 165.56,-70.05 40.63,-24.66 94.36,-65.84 94.36,-118.74 0,-24.4 -5.09,-49.97 -28.71,-61.77 -17.59,-8.8 -49.72,-9.86 -68.99,-9.86 -61.71,0 -136.37,47.49 -184.46,82.32 -33.01,23.9 -72.74,44.04 -114.39,44.04 -34.22,0 -60.83,-15.79 -76.51,-46.28 -15.71,-30.55 -20.33,-66.74 -20.33,-100.7 0,-61.16 47.07,-111.14 92.13,-146.58 100.13,-78.74 233.56,-100.67 357.71,-100.67 92.36,0 180.59,23.64 247.23,90.28 52.67,52.67 80.25,116.5 80.25,191.08 0,89.21 -19.05,179.53 -79.32,248.25 -28.42,32.4 -73.1,61.54 -115.13,85.03 40.99,19.03 76.42,47.83 107.01,82.19 35.82,40.24 61.5,84.84 75.41,133.99 35.49,-82.43 84.07,-158.61 140.86,-228.53 107.16,-131.94 251.18,-253.32 430.16,-253.32 54.05,0 104.17,15.01 143.64,52.87 38.8,37.2 55.49,84.89 55.49,138.23 0,42.87 -1.33,96.35 -12.78,137.85 -17.52,63.48 -57.83,125.7 -97.39,176.98 -43.79,62.79 -100.01,113.96 -163.92,155.7l-0.66 0.43 -0.68 0.37c-75.28,41.41 -150.42,83.05 -225.42,124.96 1.5,5.96 3.43,11.88 6,16.66 1.14,2.13 2.44,2.19 4.9,2.19 71.52,0 152.52,-18.72 221.23,-37.37 93.78,-25.45 187.2,-52.16 280.26,-80.09l2.9 -0.87 3.03 0c13.24,0 25.66,2.85 36.08,9.18 6.9,-27.75 13.75,-55.57 20.01,-83.34 17.83,-79.11 38.32,-157.72 60.45,-235.74 22.74,-80.19 46.36,-160.34 72.46,-239.51 14.95,-45.37 40.12,-92.04 85.07,-114.53 29.47,-13.74 70.9,-15.96 102.97,-15.96 25.57,0 55.67,4.47 72.44,26.02 14.83,19.04 18.39,45.37 18.39,68.81 0,10.99 -0.58,22.02 -1.62,33 31.64,-25.85 64.55,-50.98 98.28,-72.45 48.82,-31.07 114.16,-65.4 173.53,-65.4 74.63,0 147.04,20.42 190.61,85.35 49.02,73.05 54.65,207.18 54.65,292.27 0,59.38 -12.47,118.48 -32.99,175.71zm2184.1 -482.76c16.73,-24.73 38.14,-47.78 62.32,-50.39 38.69,-4.18 82.02,14.47 115.3,32.43 36.32,19.6 73.93,50.78 67.89,96.48 -1.56,21.08 -9.81,49.88 -15.1,70.25 -12.33,47.53 -26.01,94.87 -39.78,142.01 -22.55,77.18 -45.52,154.25 -69,231.16 44.2,-55.6 89.56,-110.29 135.84,-164.15 73.13,-85.12 151.01,-171.45 234.5,-246.58 44.77,-40.28 132.29,-115.61 196.31,-115.61 31.75,0 65.8,8.75 77.58,41.77 10.68,29.92 11.23,77.63 11.23,109.22 0,74.51 -16.21,167.84 -27.3,241.74 -11.15,74.3 -26.85,166.63 -26.85,241.62 0,19.93 1.55,39.97 3.88,59.76 3.6,30.58 34.03,89.85 48.04,117.41 9.93,19.56 20.43,45.19 18.18,67.57l-0.19 1.84 -0.51 1.77c-9.22,32.24 -53.99,74.55 -78.05,96.73 -32.35,29.83 -78.09,64.63 -124.29,64.63 -47.71,0 -83.68,-29.51 -110.1,-66.88 -27.38,-38.73 -47.75,-81.45 -57.5,-128.01 -8.43,-40.26 -13.47,-81.39 -13.47,-122.56 0,-40.5 4.2,-81.41 10.26,-121.41 3.25,-21.51 6.75,-43 10.43,-64.46 -38.16,49.57 -77.93,97.94 -118.85,145.22 -46.65,53.9 -95.61,107.71 -148.01,156.1 -31.34,28.93 -62.92,57.76 -95.1,85.76 -15.25,13.26 -33.06,29.39 -49.43,40.29 -47.61,33.46 -101.38,55.91 -160.28,55.91 -33.28,0 -59.32,-15.72 -76.72,-43.88 -15.68,-25.39 -24.13,-53.18 -24.13,-83.04 0,-100.85 19.21,-208.94 40.59,-307.23 23,-105.79 49.66,-212.76 84.88,-315.2 12.02,-35.01 24.61,-70.14 38.16,-104.83 -7.55,2.75 -15.46,4.67 -23.75,5.59 -42.15,6.5 -84.63,17.72 -125.58,29.51 -15.93,4.59 -34.39,9.6 -52.66,12.95 5.15,7.51 10.07,15.09 14.4,22.6 17.48,26.97 19.09,76.1 19.09,107.08 0,125.85 -35.6,242.48 -101.31,349.73 -59.04,96.36 -141.02,180.88 -226.87,253.65 -37.97,32.18 -81.61,61.65 -128.95,77.98 -51.46,17.75 -115.11,21.18 -169.17,21.18 -63.78,0 -127.08,-13 -180.22,-49.8 -71.98,-49.82 -99.14,-125.95 -99.14,-211.5 0,-100.77 24.9,-201.79 59.42,-295.92 25.66,-69.91 57.71,-142.27 100.79,-203.33 59.45,-84.29 136.8,-190.29 216.22,-256.66 35.41,-29.59 79.87,-56.94 127.54,-56.94 24.45,0 46.4,12.54 64.53,27.99 20.34,17.33 34.33,39.55 34.33,66.85 0,1.7 -0.04,3.43 -0.13,5.18 38.88,-48.1 115.14,-70.12 171.98,-81.57 88.41,-17.8 182.81,-22.46 272.83,-22.46 26.78,0 53.69,4.03 78.39,14.74 10.15,4.39 19.93,10.2 27.56,17.73zm-575.6 152.7c-17.77,36.75 -41.47,72.6 -58.91,97.87 -52.54,76.2 -105.26,152.29 -158.17,228.25 -34.05,55.19 -80.86,140.73 -80.86,207.29 0,21.18 6.21,39.65 20.07,55.73 14.65,17 35.88,21.93 57.59,21.93 83.02,0 143.61,-66.1 185.21,-130.91 48.1,-74.95 78.97,-157.74 78.97,-247.58 0,-33.39 -12.73,-80.79 -21.37,-112.99 -9.71,-36.21 -20.8,-80.81 -22.52,-119.58zm1874.54 -85.42c31.63,-25.86 64.54,-50.98 98.27,-72.45 48.82,-31.07 114.17,-65.4 173.54,-65.4 74.63,0 147.04,20.42 190.61,85.35 49.02,73.04 54.64,207.19 54.64,292.27 0,165.51 -96.9,328.8 -194.82,455.84 -92.13,119.53 -233.84,268.77 -397.41,268.77 -33.14,0 -67.26,-10.75 -97.42,-23.76 -25.7,-11.09 -50.63,-23.86 -74.5,-38.42 -14.44,55.71 -26.26,112.75 -37.5,168.94 -11.45,57.26 -24.13,117.84 -30.83,175.83 -5.79,50.03 -9.91,100.52 -13.96,150.71 -3.96,48.95 -7.89,98.11 -13.08,146.93 -3.32,31.18 -13.69,61.93 -38.29,82.76 -28.55,24.15 -81.99,26.94 -117.61,26.94 -49.86,0 -93.62,-17.35 -116.93,-63.95 -17.18,-36.32 -20.03,-87.54 -20.03,-127.15 0,-41.99 13.5,-101.28 22.04,-142.56 19.36,-93.54 41.94,-186.82 64.81,-279.55 33,-133.85 66.04,-267.69 98.95,-401.57 13.19,-53.66 27.21,-107.73 39.34,-161.61 17.82,-79.11 38.31,-157.73 60.44,-235.74 22.74,-80.19 46.35,-160.34 72.46,-239.51 14.95,-45.37 40.13,-92.05 85.07,-114.51 29.47,-13.76 70.91,-15.97 102.99,-15.97 25.57,0 55.66,4.47 72.44,26.02 14.81,19.05 18.39,45.37 18.39,68.81 0,10.99 -0.58,22.01 -1.62,33zm1311.9 146.2c5.15,7.51 10.08,15.1 14.39,22.61 17.48,26.97 19.09,76.09 19.09,107.07 0,125.85 -35.61,242.48 -101.31,349.73 -59.03,96.36 -141.02,180.88 -226.87,253.65 -37.97,32.18 -81.61,61.65 -128.95,77.98 -51.46,17.75 -115.11,21.18 -169.17,21.18 -63.78,0 -127.08,-13 -180.21,-49.8 -71.98,-49.83 -99.15,-125.94 -99.15,-211.5 0,-100.77 24.89,-201.78 59.42,-295.92 25.66,-69.91 57.72,-142.27 100.8,-203.33 59.45,-84.29 136.79,-190.28 216.22,-256.66 35.41,-29.59 79.87,-56.94 127.54,-56.94 24.45,0 46.4,12.54 64.52,27.99 20.34,17.33 34.33,39.55 34.33,66.85 0,1.71 -0.04,3.43 -0.13,5.19 38.87,-48.11 115.13,-70.13 171.98,-81.58 88.41,-17.8 182.82,-22.46 272.83,-22.46 26.78,0 53.7,4.03 78.39,14.74 22.11,9.58 42.52,25.83 42.52,52.01 0,34.48 -14.69,64.48 -37.3,89.93 -21.5,24.18 -48.21,43.22 -80.69,46.81 -42.14,6.5 -84.62,17.72 -125.57,29.51 -15.93,4.59 -34.39,9.6 -52.66,12.95zm-294.34 -60.79c-17.76,36.76 -41.47,72.61 -58.91,97.89 -52.54,76.2 -105.25,152.29 -158.16,228.25 -34.06,55.19 -80.86,140.72 -80.86,207.29 0,21.18 6.21,39.66 20.07,55.73 14.64,17 35.88,21.93 57.58,21.93 83.02,0 143.61,-66.1 185.21,-130.91 48.1,-74.95 78.97,-157.74 78.97,-247.58 0,-33.38 -12.73,-80.79 -21.37,-112.99 -9.71,-36.22 -20.79,-80.83 -22.52,-119.6zm1227.94 176.54c-24.08,117.83 -61.86,233.07 -118.32,339.48 -52.75,99.42 -121.87,186.62 -207.79,260.05 -39.26,31.92 -83.61,59.96 -131.93,75.81 -52.18,17.1 -113.28,21.07 -167.87,21.07 -69.01,0 -127.74,-28.21 -176.86,-76.05 -63.01,-61.39 -92.64,-140.86 -100.42,-227.52l-0.08 -0.93 0 -0.92c0,-93.79 19.49,-185.09 53.57,-272.26 24.39,-62.39 55.8,-121.93 92.14,-178.17 52.12,-80.69 113.69,-159.61 186.28,-222.97 56.61,-49.4 133.74,-103.36 212.12,-103.36 24.71,0 46.16,11.05 64.08,27.48 20.68,18.96 30.74,43.38 30.74,71.37 0,57.16 -78.13,129.18 -117.24,163.85 -28.11,24.92 -65.43,57.95 -87.08,88.7 -42.85,60.85 -83.8,126.14 -114.37,194.13 -21.25,47.28 -38.3,100.67 -38.3,152.99 0,27.3 9.15,52.29 23.8,75.08 13.4,20.83 30.76,32.65 55.85,32.65 73.61,0 125.67,-50.4 163.13,-108.83 12.82,-19.99 24.2,-44.89 34.37,-66.36 20.23,-42.72 39.41,-86.05 58.37,-129.34 21.49,-49.06 34.39,-123.12 43.72,-175.8 11.64,-65.84 22.74,-138.03 22.74,-205 0,-64.84 -8.38,-141.71 -44.76,-197.3 -23.86,-36.45 -89.38,-91.16 -122.64,-120.07 -19.08,-16.58 -52.52,-34.32 -74.72,-46.56 -52.87,-29.15 -107.26,-56.3 -161.48,-82.84 -39.3,-19.24 -93.53,-47.92 -122.74,-81.12 -14.89,-16.91 -19.18,-39.86 -19.18,-61.75 0,-34.87 11.45,-66.45 32.09,-94.47 21.88,-29.71 51.7,-46.49 88.82,-46.49 40.55,0 116.71,33.59 153.71,49.88 69.01,30.38 136.2,65.87 199.17,108.35 86.16,61.16 156.44,137.98 210.37,228.93 63.1,106.39 95.15,221.83 95.15,345.46 0,13.04 0,26.06 0,39.1 0,14.49 0.73,28.99 1.93,43.43l0.07 0.85 0 0.86c0,29.74 0.14,61.98 -3.14,91.54 -3.2,28.75 -8.29,57.94 -13.31,87.07zm565.77 321.81c-39.29,39.53 -78.03,80.66 -115.93,119.66 -59.34,61.06 -127,131.09 -194.85,182.56 -53.8,40.82 -127.06,86.42 -196.99,86.42 -47.07,0 -81.71,-24.14 -104.27,-64.75 -22.4,-40.31 -32.68,-84.29 -32.68,-130.36 0,-183.97 47.98,-369.15 113.69,-539.89 31.73,-82.45 118.19,-305.04 229.84,-305.04 32.3,0 59.02,13.71 79.23,38.76 19.26,23.88 29.64,51.42 29.64,82.14 0,9.36 -18.11,59.1 -21.35,68.9 -20.21,61.14 -40.57,122.22 -60.94,183.3 -21.04,63.14 -42.01,126.69 -60.69,190.56 -5.08,17.38 -19.48,63.22 -19.48,80.7 0,16.89 1.3,36.32 6.89,52.4 2.9,8.33 10.56,9.21 18.61,9.21 35.21,-0.57 179.75,-177.89 201.56,-204.93 96.52,-119.65 189.58,-250.77 256.97,-388.61 14.33,-31.84 37.59,-56.81 66.63,-75.93 26.34,-17.36 56.54,-30.49 88.57,-30.49 18.19,0 43.95,1.09 60.29,11.96 25.77,18.78 30.54,55.35 30.54,84.88 0,67.82 -10.7,139.93 -22.4,206.62 -17.77,101.26 -41.31,202.2 -66.49,301.85 -35.18,139.31 -74.32,277.8 -118.71,414.47 -30.39,93.56 -58.17,187.95 -86.36,283.18 -47.81,137.88 -109.32,281.98 -193.1,402.15 -75.4,108.14 -181.14,211.39 -321.78,211.39 -102.27,0 -195.35,-64.56 -266.85,-131.97 -85.07,-80.2 -152.89,-180.96 -152.89,-301.81 0,-28.7 39.3,-67.26 58.33,-85.93 28.19,-27.65 65.32,-57.07 105.2,-62.75 24.52,-4.47 44.42,26.56 55.67,43.97 23.1,35.74 43.16,76.5 61.67,114.79 34.32,71 87.17,139.76 172.97,139.76 67.87,0 116.14,-72.46 144.24,-125.42 45.81,-86.36 77.92,-202.09 102.55,-296.39 26.7,-102.28 53.75,-204.46 80.22,-306.81 12.84,-49.65 25.4,-99.41 39.2,-148.8 10.25,-36.7 21.52,-73.33 33.25,-109.77zm3844.91 -123.81c-0.69,40.41 -5.76,80.52 -15.58,119.77 -11.64,46.58 -28.09,92.55 -45.99,137.07 -35.27,87.72 -97.2,152.94 -179.58,198.85 -94.62,52.74 -203.66,70.8 -310.89,70.8 -80.62,0 -152.58,-39.4 -212.83,-90.09 -55.88,-47.03 -108.63,-110.31 -108.63,-187.25 0,-84.12 13.82,-167.59 36.77,-247.89 9.25,-35.48 26.94,-76.85 40.36,-111.12 30.75,-78.48 62.77,-156.55 95.12,-235 24.34,-54.76 56.71,-108.4 101.17,-149.22 45.14,-41.44 98.56,-65.6 160.36,-65.6 30.52,0 50.31,23.29 62.67,48.71 11.08,22.75 20.13,48.63 20.13,74.2 0,23.88 -14.02,55.56 -24,76.92 -33.23,71.1 -70.33,147.52 -97.62,221.07 -17.7,47.7 -33.55,96.08 -47.66,144.96 -13.77,47.66 -33.28,116.99 -33.28,166.76 0,25.78 14.94,38.74 38.18,46.67 23.47,8.01 56.97,8.92 81.58,8.92 42.25,0 76.65,-19.99 105.52,-49.86 34.84,-36.04 51.62,-79.4 55.48,-127.49 -0.19,0 -0.37,0 -0.56,0 -40.96,0 -74.27,-17.97 -99.45,-50.01 -23.67,-30.13 -37.5,-64.52 -37.5,-103.01 0,-50.39 17.67,-96.52 45.66,-137.9 33.71,-49.82 79.85,-83.28 141.44,-83.28 73.22,0 141.5,20.39 184.57,79.65 51.78,-20.84 101.77,-49.75 148.03,-80.26 57.68,-38.02 112.51,-80.49 162.61,-128.1 26.58,-25.25 56.31,-50.66 88.11,-69.08 29.67,-17.17 62.36,-24.84 96.56,-24.84 31.79,0 56.46,14.97 71.37,43.04 13.81,26 19.46,54.62 19.46,83.9 0,26.61 -9.81,63.83 -16.44,89.61 -14,54.46 -30.72,108.69 -47.69,162.29 -24.43,77.14 -62.22,198.39 -62.22,279.57 0,25.91 20.36,49.56 38.4,65.98 25.95,23.65 51.85,55.49 51.85,92.47 0,54.65 -29.08,112.91 -57.26,158.29 -22.99,37.03 -64.49,96.99 -113.79,96.99 -63.2,0 -112.74,-31.32 -150.67,-80.19 -50.04,-64.47 -66.5,-145.14 -66.5,-225.22 0,-68.06 13.4,-141.07 28.6,-207.2 10.59,-46.08 23.02,-92.38 35.49,-138.4 -31.92,21.61 -64.11,42.85 -96.32,63.99 -28.21,18.52 -58.8,38.61 -85.04,60.53zm-11608.11 -40.9c29.38,-18.61 57.56,-39.37 84.44,-60.97 30.27,-24.32 59.43,-50.3 86.25,-78.39 15.77,-16.52 31.63,-33.7 47.81,-49.81 15.16,-18.45 23.85,-39.03 24.65,-62.72 -1.83,-4.82 -4.18,-10.7 -6.52,-14.22l-0.65 -1.04c-1.4,-2.41 -8.82,-13.82 -12.26,-13.82 -13.82,0 -29.89,1.7 -42.21,8.48 -18.51,10.18 -42.41,33.25 -57.35,47.46 -33.89,35.59 -63.09,91.14 -84.46,135.03 -14.24,29.26 -27.29,59.56 -39.69,90.01zm810.63 215.89c10.96,-4.34 22.6,-6.64 34.84,-6.64l1.03 0 1.02 0.1c22.69,2.27 43.11,18.46 58.66,34.02 12.77,12.77 27.42,20.03 45.58,20.03 65.22,0 128.98,-102.78 156.58,-151.05 41.96,-73.45 89.55,-173.05 89.55,-259.53 0,-24.47 1.02,-75.62 -5.16,-98.36 -4.89,-16.3 -12.83,-25.41 -30.38,-25.41 -76.25,0 -134.7,33.33 -180.03,94.01 -45.55,60.99 -85.49,159.46 -113.85,230.34 -17.58,41.58 -32.57,84.77 -46.51,127.71 -3.75,11.55 -7.55,23.15 -11.32,34.79zm3967.13 0c10.95,-4.33 22.59,-6.64 34.82,-6.64l1.03 0 1.02 0.1c22.69,2.27 43.1,18.46 58.66,34.02 12.77,12.77 27.42,20.03 45.58,20.03 65.23,0 128.99,-102.77 156.59,-151.05 41.97,-73.46 89.54,-173.05 89.54,-259.53 0,-24.43 1.03,-75.67 -5.16,-98.38 -4.89,-16.3 -12.82,-25.4 -30.37,-25.4 -76.25,0 -134.7,33.32 -180.03,94.01 -45.56,61 -85.49,159.45 -113.85,230.34 -17.59,41.58 -32.57,84.77 -46.51,127.71 -3.75,11.55 -7.55,23.15 -11.31,34.79z"/>
  </g>
  <path class="fil1" d="M3303.62 2874.11c0,136.38 -65.52,256.05 -196.55,359 -120.33,94.93 -244,142.4 -371.03,142.4 -151.09,0 -271.43,-34.09 -361.01,-102.29 -68.2,-52.13 -102.28,-100.94 -102.28,-146.4 0,-50.81 11.02,-91.26 33.08,-121.34 22.06,-30.08 52.48,-45.12 91.26,-45.12 36.11,0 81.22,27.74 135.38,83.23 54.15,55.49 131.38,83.24 231.65,83.24 68.19,0 130.37,-25.4 186.52,-76.21 56.15,-50.81 84.24,-109.64 84.24,-176.5 0,-56.15 -14.04,-96.27 -42.12,-120.34 -21.39,-18.72 -53.48,-28.08 -96.26,-28.08 -13.38,0 -42.12,4.68 -86.25,14.04 -25.41,5.35 -42.79,8.03 -52.14,8.03 -56.16,0 -84.25,-40.78 -84.25,-122.34 0,-20.06 11.03,-43.46 33.1,-70.2 22.06,-26.74 48.47,-44.12 79.21,-52.14 64.18,-18.73 121.01,-42.79 170.48,-72.21 69.52,-42.78 104.29,-88.24 104.29,-136.38 0,-40.11 -13.38,-66.85 -40.12,-80.22 -16.05,-8.01 -42.12,-12.04 -78.21,-12.04 -52.15,0 -117.67,28.75 -196.55,86.24 -37.44,26.75 -71.53,40.12 -102.29,40.12 -26.74,0 -46.13,-11.69 -58.17,-35.09 -12.04,-23.4 -18.05,-53.81 -18.05,-91.26 0,-42.79 28.08,-86.25 84.25,-130.37 81.55,-64.18 196.54,-96.26 344.97,-96.26 98.94,0 176.49,28.07 232.65,84.24 49.47,49.47 74.2,108.3 74.2,176.5 0,100.27 -24.73,178.5 -74.2,234.65 -26.75,30.75 -76.88,64.85 -150.42,102.28 52.14,13.38 99.61,44.13 142.4,92.26 54.81,61.51 82.23,131.04 82.23,208.59zm758.13 -379.06c0,60.17 -4.01,104.29 -12.04,132.37 -13.38,49.47 -44.8,106.3 -94.27,170.47 -40.11,57.5 -92.92,107.64 -158.44,150.43 -80.22,44.12 -159.78,88.24 -238.67,132.37 2.67,16.05 6.35,28.4 11.03,37.1 4.67,8.69 12.37,13.04 23.06,13.04 57.49,0 133.05,-12.7 226.64,-38.1 93.6,-25.41 187.19,-52.15 280.79,-80.23 17.38,0 29.75,6.02 37.11,18.05 7.35,12.04 11.02,28.76 11.02,50.15 0,46.79 -83.57,108.98 -250.7,186.52 -167.14,77.55 -307.53,116.33 -421.18,116.33 -61.51,0 -112.99,-35.44 -154.44,-106.31 -34.76,-60.17 -52.14,-123 -52.14,-188.53 0,-181.84 66.52,-354.65 199.56,-518.44 133.04,-163.79 271.1,-245.7 414.16,-245.7 53.49,0 96.61,15.71 129.37,47.13 32.76,31.42 49.14,72.54 49.14,123.35zm-256.72 62.18c-21.39,0 -38.78,3.67 -52.15,11.03 -13.37,7.34 -34.09,24.39 -62.17,51.13 -26.74,28.08 -56.16,74.88 -88.25,140.4 -17.39,36.1 -38.12,84.9 -62.18,146.4 44.13,-22.73 90.26,-53.48 138.39,-92.26 33.42,-26.74 62.85,-53.48 88.25,-80.22 30.75,-32.08 46.8,-48.8 48.14,-50.13 20.05,-24.07 30.08,-50.81 30.08,-80.23 -4.02,-10.69 -7.36,-18.05 -10.03,-22.06 -9.35,-16.05 -19.39,-24.06 -30.08,-24.06zm1257.53 122.33c0,131.05 -63.52,278.78 -190.53,443.25 -133.71,173.81 -260.73,260.73 -381.07,260.73 -25.4,0 -55.15,-7.35 -89.25,-22.07 -34.09,-14.71 -65.86,-32.08 -95.27,-52.14 -13.37,48.14 -28.41,113.99 -45.12,197.55 -16.72,83.57 -27.08,142.73 -31.09,177.5 -4.01,34.76 -8.69,85.24 -14.05,151.42 -5.34,66.18 -9.69,114.99 -13.03,146.41 -3.34,31.42 -13.72,54.48 -31.09,69.19 -17.38,14.71 -52.14,22.06 -104.29,22.06 -48.13,0 -80.89,-17.38 -98.27,-52.14 -12.02,-25.41 -18.05,-64.85 -18.05,-118.33 0,-45.46 28.75,-184.52 86.24,-417.17 85.58,-347.65 131.71,-535.5 138.39,-563.58 14.71,-66.85 34.76,-145.07 60.18,-234.65 25.4,-89.59 49.47,-169.14 72.2,-238.68 17.38,-52.13 42.12,-86.24 74.2,-102.28 20.06,-9.35 51.48,-14.04 94.26,-14.04 28.08,0 46.8,6.02 56.16,18.06 9.36,12.02 14.04,30.74 14.04,56.14 0,25.41 -3.34,53.49 -10.02,84.25 54.82,-46.8 100.95,-82.23 138.39,-106.3 65.51,-41.46 119.66,-62.18 162.45,-62.18 81.57,0 139.39,25.4 173.48,76.21 34.1,50.81 51.15,144.4 51.15,280.78zm-262.73 32.09c0,-54.82 -2.02,-89.58 -6.02,-104.29 -8.02,-26.74 -24.74,-40.11 -50.14,-40.11 -80.22,0 -145.74,34.09 -196.55,102.29 -32.08,42.78 -70.86,120.99 -116.33,234.65 -14.7,34.75 -30.41,77.88 -47.13,129.37 -16.72,51.47 -27.74,86.57 -33.08,105.3 6.67,-13.38 17.05,-25.08 31.08,-35.11 14.04,-10.02 29.08,-15.05 45.13,-15.05 13.38,1.34 28.74,10.69 46.13,28.08 17.38,17.39 37.43,26.07 60.17,26.07 54.81,0 112.98,-53.81 174.48,-161.45 61.51,-107.64 92.27,-197.55 92.27,-269.76zm381.06 104.29c21.39,-70.87 42.78,-132.37 64.18,-184.52 30.74,-73.54 60.84,-136.38 90.25,-188.53 37.44,-65.51 66.19,-99.61 86.24,-102.28 28.08,-2.68 61.51,6.69 100.28,28.08 38.78,21.39 56.16,46.79 52.15,76.21 -2.68,10.69 -20.73,59.5 -54.15,146.4 -25.41,64.19 -44.12,113.66 -56.16,148.41 66.86,-12.02 131.38,-22.05 193.54,-30.08 62.19,-8.01 112.66,-12.04 151.44,-12.04 29.4,-92.25 62.17,-176.49 98.27,-252.7 14.71,-32.09 39.44,-58.17 74.21,-78.21 34.75,-20.07 64.84,-30.09 90.25,-30.09 24.07,0 39.78,6.02 47.13,18.06 7.35,12.04 11.03,30.74 11.03,56.15l0 54.14c-29.42,113.66 -58.17,226.64 -86.25,338.96 -28.08,112.32 -42.12,186.53 -42.12,222.63 0,38.78 9.03,78.55 27.08,119.33 18.05,40.78 25.73,66.53 23.06,77.22 -2.67,18.71 -26.41,47.79 -71.2,87.25 -44.79,39.44 -83.24,59.17 -115.32,59.17 -33.42,0 -62.51,-18.39 -87.25,-55.16 -24.73,-36.77 -40.45,-77.88 -47.14,-123.34 -1.32,-9.36 -2,-24.07 -2,-44.13 0,-48.13 6.69,-107.64 20.06,-178.5 -36.11,-8.01 -73.54,-12.04 -112.31,-12.04 -32.09,0 -80.89,6.02 -146.41,18.06 -13.38,2.67 -52.15,10.69 -116.33,24.06 -8.02,29.42 -16.72,82.24 -26.07,158.45 -2.67,25.41 -7.69,57.49 -15.05,96.27 -7.35,38.78 -33.08,70.86 -77.21,96.26 -37.45,21.39 -75.54,32.1 -114.32,32.1 -24.07,0 -41.78,-11.38 -53.15,-34.1 -11.35,-22.73 -17.05,-46.13 -17.05,-70.2 4.01,-38.78 9.03,-73.87 15.05,-105.3 6.01,-31.42 15.04,-71.86 27.07,-121.33 -36.11,0 -64.85,-7.02 -86.24,-21.07 -21.39,-14.04 -32.09,-35.75 -32.09,-65.18 0,-28.07 17.39,-55.15 52.14,-81.22 34.76,-26.08 79.55,-48.47 134.39,-67.19zm1947.46 -292.83c-34.76,5.35 -77.55,15.38 -128.37,30.09 -37.44,10.69 -65.51,16.05 -84.24,16.05 17.39,24.06 28.74,40.78 34.09,50.13 10.69,16.05 16.05,48.13 16.05,96.27 0,119 -32.75,231.98 -98.27,338.96 -50.81,82.9 -125.01,165.79 -222.63,248.69 -42.79,36.11 -83.57,60.85 -122.34,74.21 -38.78,13.38 -92.93,20.06 -162.45,20.06 -68.2,0 -124.35,-15.38 -168.48,-46.13 -60.17,-41.45 -90.25,-106.3 -90.25,-194.54 0,-88.25 19.39,-184.52 58.17,-288.81 29.41,-81.55 62.17,-147.74 98.27,-198.54 85.57,-121.68 156.44,-205.92 212.59,-252.72 41.46,-34.76 79.55,-52.14 114.32,-52.14 16.05,0 33.1,7.68 51.15,23.06 18.05,15.38 27.08,32.42 27.08,51.15 0,37.44 -26.75,94.93 -80.23,172.48 -53.48,77.55 -106.3,153.76 -158.45,228.63 -56.15,90.93 -84.24,163.8 -84.24,218.61 0,26.75 8.36,49.81 25.07,69.2 16.73,19.39 41.12,29.08 73.21,29.08 74.88,0 142.4,-46.8 202.57,-140.4 54.81,-85.57 82.24,-171.81 82.24,-258.72 0,-24.07 -7.35,-63.51 -22.07,-118.33 -14.71,-54.82 -22.06,-96.27 -22.06,-124.34 0,-64.18 60.17,-108.32 180.51,-132.38 72.2,-14.72 161.79,-22.06 268.76,-22.06 26.74,0 50.13,4.34 70.19,13.04 20.06,8.69 30.09,19.72 30.09,33.08 0,26.75 -10.7,52.15 -32.09,76.22 -21.4,24.06 -44.13,37.44 -68.19,40.11zm862.41 -4.01c0,38.78 -9.01,118.33 -27.07,238.67 -18.05,120.34 -27.08,201.9 -27.08,244.68 0,18.72 1.34,39.45 4.02,62.18 2.67,22.73 19.39,64.18 50.13,124.34 12.04,24.07 17.39,42.8 16.05,56.16 -5.35,18.72 -29.41,47.8 -72.2,87.24 -42.79,39.46 -79.55,59.17 -110.31,59.17 -34.76,0 -65.85,-19.39 -93.26,-58.17 -27.41,-38.77 -45.47,-78.88 -54.15,-120.33 -8.68,-41.45 -13.04,-80.89 -13.04,-118.33 0,-34.76 3.34,-74.2 10.02,-118.33 6.68,-44.12 15.38,-94.27 26.07,-150.42 -48.13,66.86 -104.95,138.39 -170.47,214.6 -54.82,62.85 -103.62,114.32 -146.41,154.44 -78.88,72.2 -126.34,113.65 -142.39,124.34 -49.48,34.76 -98.95,52.15 -148.42,52.15 -25.4,0 -45.13,-11.38 -59.17,-34.09 -14.04,-22.73 -21.06,-46.8 -21.06,-72.2 0,-78.89 13.37,-179.84 40.12,-302.85 26.74,-123.01 54.82,-227.31 84.23,-312.88 29.42,-85.57 56.16,-153.1 80.23,-202.57 32.08,-66.85 59.51,-101.61 82.24,-104.28 26.74,-2.67 61.17,7.34 103.28,30.08 42.12,22.73 61.17,48.13 57.16,76.2 -1.34,20.07 -19.39,89.59 -54.15,208.6 -34.78,118.99 -68.86,231.97 -102.29,338.95 62.84,-82.91 131.04,-167.14 204.58,-252.71 89.59,-104.29 167.13,-185.86 232.65,-244.68 81.57,-73.54 142.4,-110.32 182.51,-110.32 32.09,0 51.48,9.37 58.17,28.08 6.68,18.72 10.02,52.81 10.02,102.28zm1038.92 160.45c0,131.05 -63.51,278.78 -190.53,443.25 -133.71,173.81 -260.73,260.73 -381.07,260.73 -25.4,0 -55.14,-7.35 -89.25,-22.07 -34.09,-14.71 -65.85,-32.08 -95.26,-52.14 -13.38,48.14 -28.41,113.99 -45.13,197.55 -16.72,83.57 -27.07,142.73 -31.09,177.5 -4.01,34.76 -8.69,85.24 -14.04,151.42 -5.35,66.18 -9.69,114.99 -13.03,146.41 -3.35,31.42 -13.72,54.48 -31.1,69.19 -17.37,14.71 -52.13,22.06 -104.28,22.06 -48.13,0 -80.89,-17.38 -98.28,-52.14 -12.02,-25.41 -18.05,-64.85 -18.05,-118.33 0,-45.46 28.75,-184.52 86.25,-417.17 85.58,-347.65 131.71,-535.5 138.39,-563.58 14.71,-66.85 34.75,-145.07 60.17,-234.65 25.4,-89.59 49.47,-169.14 72.2,-238.68 17.39,-52.13 42.12,-86.24 74.21,-102.28 20.05,-9.35 51.47,-14.04 94.26,-14.04 28.07,0 46.8,6.02 56.15,18.06 9.36,12.02 14.05,30.74 14.05,56.14 0,25.41 -3.35,53.49 -10.02,84.25 54.81,-46.8 100.94,-82.23 138.38,-106.3 65.52,-41.46 119.67,-62.18 162.46,-62.18 81.57,0 139.39,25.4 173.48,76.21 34.1,50.81 51.14,144.4 51.14,280.78zm-262.73 32.09c0,-54.82 -2.01,-89.58 -6.02,-104.29 -8.01,-26.74 -24.73,-40.11 -50.13,-40.11 -80.23,0 -145.75,34.09 -196.55,102.29 -32.09,42.78 -70.87,120.99 -116.33,234.65 -14.71,34.75 -30.42,77.88 -47.13,129.37 -16.72,51.47 -27.74,86.57 -33.09,105.3 6.68,-13.38 17.05,-25.08 31.09,-35.11 14.04,-10.02 29.08,-15.05 45.12,-15.05 13.38,1.34 28.74,10.69 46.13,28.08 17.39,17.39 37.44,26.07 60.17,26.07 54.82,0 112.99,-53.81 174.5,-161.45 61.51,-107.64 92.26,-197.55 92.26,-269.76zm1253.51 -188.53c-34.76,5.35 -77.54,15.38 -128.35,30.09 -37.44,10.69 -65.52,16.05 -84.24,16.05 17.38,24.06 28.74,40.78 34.08,50.13 10.69,16.05 16.05,48.13 16.05,96.27 0,119 -32.75,231.98 -98.27,338.96 -50.8,82.9 -125.01,165.79 -222.63,248.69 -42.79,36.11 -83.57,60.85 -122.34,74.21 -38.78,13.38 -92.93,20.06 -162.45,20.06 -68.2,0 -124.35,-15.38 -168.47,-46.13 -60.18,-41.45 -90.26,-106.3 -90.26,-194.54 0,-88.25 19.39,-184.52 58.17,-288.81 29.42,-81.55 62.18,-147.74 98.28,-198.54 85.57,-121.68 156.43,-205.92 212.59,-252.72 41.45,-34.76 79.55,-52.14 114.32,-52.14 16.05,0 33.09,7.68 51.14,23.06 18.05,15.38 27.08,32.42 27.08,51.15 0,37.44 -26.75,94.93 -80.23,172.48 -53.47,77.55 -106.29,153.76 -158.44,228.63 -56.16,90.93 -84.24,163.8 -84.24,218.61 0,26.75 8.36,49.81 25.07,69.2 16.72,19.39 41.12,29.08 73.2,29.08 74.88,0 142.4,-46.8 202.57,-140.4 54.82,-85.57 82.24,-171.81 82.24,-258.72 0,-24.07 -7.35,-63.51 -22.07,-118.33 -14.7,-54.82 -22.05,-96.27 -22.05,-124.34 0,-64.18 60.17,-108.32 180.5,-132.38 72.2,-14.72 161.79,-22.06 268.76,-22.06 26.74,0 50.14,4.34 70.19,13.04 20.07,8.69 30.09,19.72 30.09,33.08 0,26.75 -10.7,52.15 -32.09,76.22 -21.39,24.06 -44.13,37.44 -68.19,40.11zm738.08 174.48c-25.41,124.35 -64.19,235.67 -116.33,333.94 -52.15,98.27 -119.67,182.85 -202.57,253.71 -42.79,34.78 -84.58,58.84 -125.35,72.21 -40.78,13.36 -94.6,20.05 -161.45,20.05 -60.17,0 -114.33,-23.4 -162.46,-70.2 -54.81,-53.48 -86.24,-125 -94.27,-214.59 0,-86.92 17.39,-175.17 52.15,-264.75 22.73,-57.48 52.81,-115.65 90.25,-174.48 60.18,-92.26 121.01,-165.12 182.52,-218.61 74.87,-65.52 141.06,-98.27 198.56,-98.27 17.38,0 34.09,7.35 50.14,22.06 16.05,14.72 24.06,33.43 24.06,56.16 0,33.42 -36.76,82.9 -110.3,148.41 -44.13,38.78 -74.21,69.53 -90.26,92.26 -50.81,72.2 -89.58,138.05 -116.32,197.55 -26.75,59.5 -40.12,113.32 -40.12,161.45 0,29.41 9.02,58.17 27.08,86.24 18.05,28.08 42.44,42.12 73.2,42.12 69.52,0 129.69,-39.44 180.5,-118.33 16.05,-25.4 47.47,-91.59 94.27,-198.56 14.71,-33.42 29.75,-93.59 45.13,-180.5 15.37,-86.91 23.06,-156.45 23.06,-208.59 0,-89.58 -16.05,-159.12 -48.13,-208.59 -16.05,-24.06 -58.17,-65.51 -126.36,-124.34 -24.06,-21.39 -104.28,-65.52 -240.66,-132.37 -57.5,-28.08 -96.27,-53.49 -116.33,-76.22 -9.36,-10.69 -14.04,-26.74 -14.04,-48.13 0,-29.42 9.35,-56.82 28.07,-82.24 18.72,-25.4 42.79,-38.1 72.21,-38.1 24.06,0 72.53,16.04 145.4,48.13 72.87,32.08 138.06,67.52 195.54,106.3 82.9,58.84 151.09,133.05 204.58,222.63 61.51,104.29 92.26,215.93 92.26,334.94 0,12.04 0,25.06 0,39.1 0,14.05 0.67,29.08 2,45.13 0,41.46 -1,71.2 -3.01,89.26 -2,18.05 -6.35,46.46 -13.03,85.23zm631.76 252.72c-18.71,17.39 -77.54,76.88 -176.5,178.5 -84.24,86.91 -148.41,147.08 -192.53,180.51 -72.2,54.82 -133.71,82.23 -184.52,82.23 -37.44,0 -66.18,-18.05 -86.25,-54.14 -20.05,-36.11 -30.08,-76.22 -30.08,-120.34 0,-160.45 37.44,-337.94 112.32,-532.49 74.87,-194.55 145.07,-291.82 210.59,-291.82 25.41,0 46.46,10.35 63.18,31.08 16.72,20.72 25.07,43.79 25.07,69.19 0,1.34 -27.07,83.24 -81.22,245.69 -54.15,162.47 -81.24,255.06 -81.24,277.78 0,24.07 2.68,43.8 8.03,59.18 5.34,15.37 18.05,23.06 38.1,23.06 30.76,0 103.29,-70.86 217.61,-212.6 114.32,-141.72 200.9,-272.76 259.72,-393.1 12.04,-26.74 31.76,-49.13 59.17,-67.18 27.42,-18.06 53.15,-27.08 77.22,-27.08 24.07,0 40.11,2.67 48.14,8.01 14.7,10.7 22.06,33.43 22.06,68.2 0,102.95 -29.41,270.76 -88.26,503.42 -40.1,159.11 -79.55,296.83 -118.33,413.15 -29.4,93.6 -58.15,187.87 -86.24,282.8 -57.48,165.8 -121,298.17 -190.53,397.11 -93.6,135.05 -195.2,202.57 -304.86,202.57 -78.87,0 -163.11,-42.12 -252.7,-126.35 -97.6,-92.26 -146.41,-187.86 -146.41,-286.8 0,-13.38 17.39,-37.11 52.14,-71.2 34.76,-34.09 66.19,-53.15 94.27,-57.15 14.71,-2.68 46.46,46.46 95.26,147.41 48.8,100.94 112.66,151.41 191.54,151.41 60.17,0 114.32,-45.46 162.46,-136.38 33.42,-62.85 68.19,-163.13 104.28,-300.85 26.74,-102.94 53.48,-205.24 80.23,-306.85 13.37,-53.48 26.4,-102.95 39.1,-148.41 12.71,-45.47 32.42,-108.32 59.17,-188.53zm980.75 -106.3c16.04,60.17 52.14,113.65 108.31,160.45 70.86,48.13 121,82.23 150.41,102.28 29.42,17.39 59.17,34.76 89.25,52.14 30.08,17.39 45.13,32.76 45.13,46.13 4.01,24.07 -15.38,57.49 -58.17,100.28 -42.79,42.79 -84.23,64.19 -124.34,64.19 -61.51,0 -132.37,-34.43 -212.6,-103.29 -80.21,-68.86 -141.72,-142.06 -184.52,-219.61 -66.85,76.21 -129.03,139.05 -186.51,188.52 -85.58,74.88 -152.44,112.32 -200.57,112.32 -25.41,0 -44.46,-10.69 -57.16,-32.09 -12.7,-21.39 -19.05,-44.78 -19.05,-70.19 0,-74.87 13.37,-174.5 40.11,-298.84 26.75,-124.35 54.81,-229.32 84.24,-314.89 24.07,-72.2 49.47,-135.05 76.21,-188.53 32.09,-65.51 58.17,-99.61 78.22,-102.28 28.08,-2.68 62.51,6.69 103.28,28.08 40.79,21.39 59.84,46.79 57.16,76.21 -2.68,24.07 -19.73,89.92 -51.15,197.55 -31.42,107.64 -66.51,219.61 -105.28,335.94 68.19,-88.25 135.05,-170.48 200.56,-246.7 88.25,-102.96 164.46,-183.18 228.65,-240.67 80.22,-72.21 139.72,-108.31 178.5,-108.31 32.09,0 51.47,9.36 58.17,28.08 6.68,18.72 10.03,52.81 10.03,102.28 0,64.18 -21.41,111.65 -64.19,142.4 -44.13,28.08 -80.55,50.8 -109.31,68.19 -28.75,17.38 -57.15,40.11 -85.24,68.19 -1.34,1.34 -18.05,18.73 -50.14,52.15zm1793.03 557.56c-50.81,0 -95.27,-12.38 -133.38,-37.11 -38.11,-24.74 -66.53,-58.5 -85.24,-101.28 -8.02,-20.06 -13.38,-42.11 -16.05,-66.19 -2.68,-24.07 -4.02,-51.47 -4.02,-82.23 0,-20.06 0.68,-48.47 2.01,-85.25 1.34,-36.77 2.01,-61.83 2.01,-75.2 -70.87,81.55 -141.73,163.12 -212.6,244.68 -117.66,123.01 -206.58,184.52 -266.74,184.52 -37.45,0 -64.85,-16.05 -82.23,-48.14 -12.05,-21.39 -18.06,-44.13 -18.06,-68.19l86.25 -359c4.01,-10.69 10.69,-37.11 20.05,-79.22 9.36,-42.12 16.72,-68.53 22.07,-79.22 -9.36,9.35 -58.17,76.88 -146.41,202.57 -92.26,131.04 -171.81,233.32 -238.67,306.86 -97.6,106.97 -175.16,160.45 -232.65,160.45 -37.44,0 -64.52,-14.71 -81.24,-44.12 -16.71,-29.42 -25.06,-62.85 -25.06,-100.28 13.37,-57.49 24.74,-103.62 34.09,-138.39 20.05,-76.21 45.46,-167.8 76.21,-274.77 24.07,-110.98 48.8,-222.63 74.2,-334.93 34.76,-117.67 92.27,-176.5 172.48,-176.5 25.41,0 43.13,6.35 53.15,19.05 10.03,12.71 15.05,32.42 15.05,59.17 0,10.69 -1,25.07 -3.01,43.12 -2,18.05 -3,29.08 -3,33.09 0,24.07 -18.73,109.64 -56.16,256.72 -13.38,68.2 -26.74,135.72 -40.12,202.57 14.71,0 61.52,-49.47 140.4,-148.41 114.99,-144.4 190.53,-236.67 226.63,-276.77 90.93,-100.28 157.11,-150.43 198.57,-150.43 17.38,0 38.11,12.71 62.17,38.12 29.42,30.74 44.13,61.51 44.13,92.25 -4.01,38.78 -24.06,137.06 -60.17,294.83 -26.74,112.32 -41.45,175.83 -44.13,190.54 53.48,-66.86 107.64,-134.39 162.46,-202.57 92.26,-115 170.47,-207.25 234.65,-276.78 85.58,-93.59 141.06,-140.39 166.47,-140.39 25.4,0 46.47,7.68 63.18,23.06 16.72,15.38 25.07,38.45 25.07,69.19 0,21.39 -8.02,51.48 -24.07,90.26 -38.78,93.6 -60.17,156.11 -64.18,187.52 -4.01,31.42 -8.02,69.87 -12.04,115.32 -4.01,45.47 -6.01,84.25 -6.01,116.33 0,36.11 3.67,66.86 11.02,92.27 7.35,25.4 25.74,51.47 55.15,78.21 29.42,26.74 44.13,48.8 44.13,66.19 0,26.74 -14.05,61.51 -42.12,104.28 -32.09,49.47 -63.52,74.21 -94.26,74.21zm1305.66 -938.63c30.74,-29.41 58.83,-51.48 84.24,-66.18 25.4,-14.72 54.14,-22.07 86.23,-22.07 24.08,0 41.8,10.69 53.15,32.08 11.38,21.41 17.05,46.14 17.05,74.22 0,30.74 -21.05,112.64 -63.17,245.67 -42.12,133.05 -63.18,228.32 -63.18,285.8 0,26.74 15.04,53.82 45.13,81.24 30.08,27.4 45.12,53.14 45.12,77.21 0,40.12 -18.05,89.25 -54.15,147.41 -36.1,58.17 -68.19,87.25 -96.27,87.25 -52.14,0 -96.94,-24.06 -134.38,-72.21 -41.44,-53.47 -62.17,-124.33 -62.17,-212.58 0,-52.15 9.35,-119.67 28.07,-202.58 8.02,-33.42 24.74,-97.61 50.14,-192.54 -8.01,6.69 -55.48,38.78 -142.39,96.27 -41.46,26.74 -72.88,49.47 -94.27,68.2 0,42.78 -5.01,84.24 -15.05,124.34 -10.02,40.12 -25.07,84.9 -45.12,134.38 -32.09,80.22 -88.92,143.07 -170.48,188.53 -81.55,45.46 -181.84,68.19 -300.85,68.19 -65.51,0 -132.03,-28.41 -199.55,-85.25 -67.53,-56.82 -101.28,-113.98 -101.28,-171.47 0,-77.54 12.04,-158.44 36.1,-242.68 8.02,-30.75 52.81,-145.06 134.38,-342.96 26.74,-60.17 58.84,-107.64 96.27,-142.4 44.12,-40.11 92.93,-60.17 146.4,-60.17 17.39,0 32.09,12.37 44.13,37.11 12.04,24.73 18.05,46.46 18.05,65.18 0,14.72 -7.35,37.45 -22.06,68.19 -52.15,112.32 -84.91,186.53 -98.27,222.63 -17.39,46.8 -33.43,95.61 -48.14,146.41 -22.73,78.88 -34.08,136.38 -34.08,172.48 0,32.09 17.37,54.15 52.14,66.19 20.06,6.68 49.47,10.02 88.24,10.02 44.13,0 84.25,-18.72 120.35,-56.15 41.44,-42.8 62.17,-97.61 62.17,-164.47 -5.34,1.34 -12.7,2.02 -22.07,2.02 -33.42,0 -61.17,-14.05 -83.23,-42.13 -22.06,-28.07 -33.09,-58.15 -33.09,-90.26 0,-42.78 14.04,-84.9 42.12,-126.34 33.42,-49.47 74.88,-74.21 124.35,-74.21 84.24,0 143.06,28.08 176.5,84.24 50.8,-18.72 106.63,-48.13 167.46,-88.25 60.84,-40.11 116,-83.57 165.47,-130.37z"/>
  <g id="_1939994093792">
   <path class="fil2" d="M888.23 3389.95c-40.78,9.5 -65.69,25.12 -109.28,37.41 -45.01,12.7 -83.32,17.59 -127.05,27.78l0 374.84 16.44 -24.3c4.74,-8.49 8.16,-16.38 13.49,-27.27l86.88 -165.74c21.37,-42.74 38.25,-71.19 59.79,-111.33l59.72 -111.4zm0 0l0 0zm619.31 -89.64c-75.48,-6.28 -53.17,-24.45 -203.72,-24.45 -128.97,0 -240.58,108.61 -293.36,187.43 157.93,36.8 248.93,66.82 406.4,-58.08 44.52,-35.32 64.79,-55.62 90.68,-104.89zm-1002.32 -325.96l0 0zm162.98 0l0 0zm-154.83 342.26c-35.41,-152.01 -74.4,-267.23 -229.09,-333.18 -51.82,-22.09 -87.25,-28.04 -145.75,-41.66 30.08,129.12 54.14,219.77 166.51,297.96 18.76,13.07 44.46,27.48 62.58,35.21 51.83,22.1 87.25,28.04 145.75,41.67zm521.53 -374.84c-83.69,19.49 -133.6,27.87 -203.42,73.62 -9.77,6.4 -44.95,33.59 -54.58,43.21 -73.4,73.4 -94.04,160.12 -116.85,258.01 59.92,-13.95 92.29,-20.1 145.71,-41.72 110.15,-44.57 180.99,-140.74 211.41,-253.08 6.19,-22.87 10.59,-64.06 17.73,-80.05zm-529.67 -293.36l0 0zm162.98 0l0 0zm-162.98 325.95c0,-81.58 -58.52,-195.97 -112.92,-245.63 -80.34,-73.36 -150.24,-88.79 -253.78,-112.92 67.2,288.45 68.12,159.32 261.39,276.44 66.78,40.46 75.11,61.89 105.31,82.11zm162.98 0c31.3,-20.96 28.85,-34.6 101.1,-78.17 170.4,-102.78 183.5,-32.78 223.91,-134.65 21.32,-53.72 27.67,-85.54 41.68,-145.73 -118.65,27.65 -166.76,39.32 -249.32,109.23 -25.51,21.61 -61.22,74.28 -76.2,103.07 -15.59,29.93 -41.18,102.04 -41.18,146.25zm774.15 -342.25l9.36 -15.89 -9.36 15.89zm24.44 -40.75l0 0zm0 0c54.48,-12.7 31.55,-19.54 139.72,-31.52 176.85,-19.57 149.4,77.11 273.51,-27.9 31.68,-26.8 61.64,-62.25 83.85,-95.42 -107.87,-25.13 -188.02,-50.49 -300.53,-7.18 -81.51,31.39 -150.4,93.09 -196.55,162.01zm-961.57 -268.92l0 0zm162.98 0l0 0zm-162.98 325.96c0,-52.13 -20.95,-101.41 -38.23,-141.05 -34.03,-78.08 -105.46,-144.5 -182.77,-175.78 -53.41,-21.62 -85.78,-27.76 -145.7,-41.72 74.16,318.32 85.04,139.57 314.53,312.92 22.95,17.34 29.54,30.47 52.16,45.63zm162.98 0c48.8,-32.68 85.76,-91.36 222.87,-135.68 103.32,-33.39 102.33,-44.72 143.82,-222.87 -118.65,27.64 -166.76,39.32 -249.32,109.22 -57.67,48.84 -117.38,169.96 -117.38,249.33zm774.15 -16.29c-54.85,40.18 -86.24,245.71 -184.61,185.05 -81.98,-50.54 3.82,-125.34 58.92,-261.85 62.99,-156.01 68.3,-312 -51.59,-446.73 -23.07,-25.93 -74.52,-78.73 -107.94,-87.65 -1.1,49.85 -22.65,87.69 -32.6,130.39 57.13,30.23 59.59,60.77 43.29,157.38 -15.76,93.44 -28.13,103.52 -43.29,168.58 57.13,30.23 59.59,60.78 43.29,157.38 -15.76,93.44 -28.13,103.52 -43.29,168.59 37.97,20.09 48.41,22.42 49.62,81.15 2.05,100.13 -42.49,246.65 -90.36,318.14 40.03,-9.32 61.54,-36.08 150.07,-53.66 73.89,-14.67 111.78,-14.17 184.61,-3.96 96.97,13.59 71.83,33.97 145.09,-24.89 41.84,-33.61 66.76,-57.07 98.8,-104.92 -284.09,-66.19 -257.84,3.16 -319.57,-14.24 -61.99,-17.46 -77.14,-111.96 15.94,-134.55 258.83,-62.84 235.94,73.48 378.97,-52.93 22.7,-20.07 63.41,-61.99 71.33,-91.64 -63.03,-5.24 -101.73,-37.01 -219.11,-23.53 -18.78,2.16 -144.86,56.66 -147.59,-66.1zm554.12 -521.54c-143.61,-75.99 -155.97,-30.96 -210.57,9.46 -163.42,120.98 -76.84,-9.92 -180.58,186.12 25.9,-6.03 25.36,-10.43 55.17,-18.17 11.44,-2.97 49.58,-10.96 60.85,-12.49 81.6,-11.03 189.33,27.1 275.13,-164.91zm-1491.25 211.87c0,-124.15 -94.3,-262.89 -220.94,-316.88 -51.82,-22.09 -87.25,-28.04 -145.75,-41.67 39.91,171.31 44.61,192.38 137.63,220.92 141.56,43.45 172.79,99.94 229.07,137.63zm162.98 0c48.8,-32.67 85.76,-91.35 222.87,-135.68 103.32,-33.39 102.33,-44.72 143.82,-222.87 -118.65,27.65 -166.76,39.32 -249.32,109.23 -25.41,21.52 -61.33,74.4 -76.2,103.07 -17.52,33.82 -41.18,96.23 -41.18,146.25zm749.7 -513.38c-121.09,228.86 19.1,234.06 65.2,431.9l57.01 -105.16c9.54,-28.47 -8.12,-89.67 -8.12,-147.45 0,-62.47 51.05,-91.9 -114.09,-179.28zm431.9 -114.08c-54.72,12.75 -104.48,74.04 -133.9,118.71 -39.63,60.2 -45.38,118.73 -45.38,215.4 51.27,-13.7 104.17,-75.44 133.94,-118.68 39.55,-57.41 45.34,-121.3 45.34,-215.43zm-1328.28 317.8c0,-43.68 7.23,-108.4 -8.05,-138.62 -5.99,-11.84 -20.65,-26.07 -31.26,-42.09l-50.54 -96.13c-22.83,-53.58 -22.11,-73.57 -170.91,-73.57 0,216.3 87.08,209.37 182.95,281.53 32.57,24.51 48.64,49.34 77.81,68.87zm391.15 -325.95l0 -24.45c-43.12,0 -126.68,3.69 -149.69,29.58l-9.12 15.35c-20.38,40.21 -30.32,76.07 -62.63,124.78 -10.62,16.02 -25.27,30.25 -31.26,42.09 -15.29,30.22 -8.06,94.94 -8.06,138.62 48.6,-32.55 42.29,-58.8 169.77,-123.59 54.51,-27.7 90.99,-115.4 90.99,-202.36zm-325.95 -325.96c-62.17,45.54 -85.29,208.06 -29.14,330.64 12.57,27.44 14.03,18.12 20.99,44.21l16.3 0c7.4,-27.73 56.29,-100.61 56.29,-187.43 0,-56.65 -31.94,-163.61 -64.44,-187.43zm195.57 179.28c37.7,-8.79 83.93,-16.29 130.38,-16.29l0 -285.21c0,-39.43 25.77,-65.2 65.19,-65.2 68.24,0 65.71,53.54 65.25,122.18l-0.09 277.16c6.62,122.54 22.42,86.55 -16.26,252.57 104.81,0 91.95,-11.46 143.6,35.69l76.43 45.8c0,-82.02 55.95,-168.07 94.47,-231.48l73.82 -146.21c37.19,-73.26 88.13,-192.73 141.37,-192.73 35.72,0 65.19,26.59 65.19,73.34 0,27.27 -117.59,245.63 -138.52,285.21 38.97,9.08 75.87,45.06 105.93,65.19 125.79,-187.84 227.68,-191.53 266.63,-230.45 52.45,-52.42 116.27,-299.22 197.85,-299.22 150.26,0 -5.42,222.57 -27.16,266.19 -86.54,173.62 -38.02,72.78 -38.02,222.74 0,92.07 -19.05,165.96 -48.89,228.17 49.28,4.1 78.34,30.52 122.23,40.75 12.76,-47.79 91.81,-174.44 119.37,-231.03 53.9,-110.61 187.08,-45 105.39,89.08 -70.59,115.86 -153.35,320.6 -218.83,408.63 -16.1,21.65 -33.95,40.27 -46.68,59.27 85.98,41.25 153.59,48.69 80.03,161.52 -36.47,55.93 -92.21,128.94 -145.22,164.44 42.01,62.73 31.31,77.21 -46.48,181.68 -28.43,38.19 -62.57,78.33 -100.2,103.52 12.21,45.74 16.29,-3.62 16.29,65.2 0,57.93 -131.07,201.34 -171.12,228.16 8.46,12.64 24.44,29.67 24.44,48.89 0,82.05 -220.24,358.55 -464.48,358.55 -206.83,0 -199.01,-34.25 -277.06,-40.75 -41.32,61.71 -223.41,433.94 -281.53,533.36 -17.31,29.6 -25.74,53.36 -68.87,53.36 -71.38,0 -65.53,-59.23 -65.22,-130.36l0.02 -586.74c-35.02,-8.16 -76.16,-14.54 -107.71,-22.67 -262.05,-67.58 -413.82,-275.65 -413.82,-564.06 0,-42.11 21.58,-50.74 48.89,-65.19 -24.7,-106.01 -48.89,-121.55 -48.89,-260.76 0,-42.11 21.58,-50.75 48.89,-65.2 -24.7,-106.01 -48.89,-121.55 -48.89,-260.76 0,-42.1 21.58,-50.74 48.89,-65.19 -24.7,-106.01 -48.89,-121.55 -48.89,-260.76 0,-76.84 71.22,-65.2 146.68,-65.2 -32.36,-138.89 -15.25,-363.25 -16.36,-529.73 -0.45,-68.63 -2.98,-122.18 65.25,-122.18 39.42,0 65.19,25.77 65.19,65.2l0 285.21c46.46,0 92.68,7.51 130.39,16.29 0,-175.36 96.76,-267.2 122.32,-317.72 45.93,-90.81 -58.67,-374.94 73.25,-374.94 129.41,0 31.1,270.76 70.59,369.44 3.25,8.12 50.25,66.93 82.09,137.94 27.15,60.56 42.89,99.8 42.89,185.28z"/>
   <path class="fil2" d="M4172.24 1222.33c0,119.88 -40.75,114.75 -40.75,146.68 0,31.93 40.75,26.81 40.75,146.68 0,89.65 -89.63,179.28 -179.27,179.28l-1515.7 0c-39.42,0 -65.19,-25.77 -65.19,-65.2 0,-79.02 77.45,-65.24 154.83,-65.19 153.78,0.09 1387.72,6.96 1422.92,-3.15 58.22,-16.71 71.44,-89.92 11.68,-119.49 -33.03,-16.36 -417.1,-8 -481.2,-7.72 -71.13,0.31 -130.36,6.16 -130.36,-65.22 0,-71.37 59.23,-65.53 130.36,-65.21 64.11,0.28 448.17,8.62 481.2,-7.73 44.89,-22.2 57.1,-79.99 5.16,-111.89 -38.92,-23.9 -606.64,-10.75 -665.61,-10.75l-2102.45 0.03c-71.13,0.31 -130.36,6.16 -130.36,-65.22 0,-39.42 25.77,-65.19 65.19,-65.19l2819.53 0c89.64,0 179.27,89.63 179.27,179.27z"/>
   <path class="fil2" d="M3612.96 4033.7c-444.26,86.29 -796.55,132 -1148.11,138.54l-176.74 0c-324.61,-5.99 -661.45,-44.73 -1081,-115.15 -56.65,-9.51 -110.43,-22.72 -171.12,-32.61 -55.58,-9.08 -123.31,-14.3 -123.31,-80.42 0,-106.87 142.35,-52.38 218.93,-39.64 166.15,27.62 331.67,60.91 498.85,79.73 58.06,6.53 106.83,12.11 166.85,20.56l353.9 29.09c74.28,-0.6 114.44,8.04 187.52,8.04 211.3,0 586.62,-37.46 791.63,-72.15l482.6 -79.57 0 143.58z"/>
   <path class="fil2" d="M3552.92 831.19c0,37.87 -0.21,81.48 -65.19,81.48 -48.49,0 -104.1,-75.72 -129.17,-107.14 -31.69,-39.73 -83.4,-84.84 -121.4,-123.07 -24.54,-24.68 -33.48,-32.38 -60.3,-53.78l-193.2 -173.49c-87.38,-71.16 -180.77,-140.48 -280.76,-200.03 -271.18,-161.48 -439.84,-163.16 -712,0.03 -103.16,61.86 -190.73,126.65 -280.79,200 -12.65,10.3 -17.62,16.51 -30.3,26.74l-97.06 82.23c-83.99,83.11 -163.24,148.64 -244.41,236.37 -50.93,55.07 -71.36,112.15 -148.61,112.15 -43.2,0 -48.89,-50.75 -48.89,-81.48 0,-31.56 204.09,-224.47 238.35,-258.73l231.76 -208.28c100.94,-84.85 209.56,-169.49 328.48,-233.79 143.92,-77.84 257.36,-121.86 368.36,-130.39l79.58 0c108.04,8.28 220.06,50.3 361.59,127.58 192.41,105.07 260.37,180.58 395.31,289.21 59.24,47.7 408.64,376.81 408.64,414.41z"/>
   <path class="fil2" d="M2998.8 1369.01c0,39.43 -25.77,65.2 -65.2,65.2l-586.71 0c-87.47,0 -87.47,-130.39 0,-130.39l586.71 0c39.43,0 65.2,25.77 65.2,65.19z"/>
   <path class="fil2" d="M2542.46 325.95c0,87.47 -130.39,87.47 -130.39,0 0,-87.46 130.39,-87.46 130.39,0z"/>
   <path class="fil2" d="M2216.5 391.15c0,87.46 -130.38,87.46 -130.38,0 0,-87.47 130.38,-87.47 130.38,0z"/>
   <path class="fil2" d="M2412.07 521.53c0,87.47 -130.39,87.47 -130.39,0 0,-87.46 130.39,-87.46 130.39,0z"/>
   <path class="fil2" d="M2738.04 586.72c0,87.46 -130.39,87.46 -130.39,0 0,-87.47 130.39,-87.47 130.39,0z"/>
   <path class="fil2" d="M2086.12 651.91c0,87.47 -130.39,87.47 -130.39,0 0,-87.47 130.39,-87.47 130.39,0z"/>
   <path class="fil2" d="M2998.8 847.49c0,87.47 -130.39,87.47 -130.39,0 0,-87.47 130.39,-87.47 130.39,0z"/>
   <path class="fil2" d="M2607.65 847.49c0,87.47 -130.39,87.47 -130.39,0 0,-87.47 130.39,-87.47 130.39,0z"/>
   <path class="fil2" d="M2281.69 847.49c0,87.47 -130.38,87.47 -130.38,0 0,-87.47 130.38,-87.47 130.38,0z"/>
   <path class="fil2" d="M1825.35 847.49c0,87.47 -130.38,87.47 -130.38,0 0,-87.47 130.38,-87.47 130.38,0z"/>
   <path class="fil2" d="M3259.56 1369.01c0,87.47 -130.39,87.47 -130.39,0 0,-87.46 130.39,-87.46 130.39,0z"/>
  </g>
 </g>
</svg>
